<svg width="16" height="16" viewBox="0 0 16 16" fill="none" xmlns="http://www.w3.org/2000/svg">
<path fill-rule="evenodd" clip-rule="evenodd" d="M3.46712 0.249705C6.47079 -0.0832348 9.50205 -0.0832348 12.5057 0.249705C14.1688 0.436107 15.5105 1.74578 15.7056 3.41467C16.0619 6.46116 16.0619 9.53879 15.7056 12.5853C15.5105 14.2542 14.1688 15.5638 12.5057 15.7502C9.50205 16.0833 6.47078 16.0833 3.46712 15.7502C1.80406 15.5638 0.462352 14.2542 0.267212 12.5853C-0.0890706 9.53912 -0.0890706 6.4618 0.267212 3.41564C0.365916 2.60485 0.735528 1.85116 1.31615 1.27671C1.89677 0.702259 2.65436 0.340716 3.46615 0.250675M7.98642 3.15254C8.17953 3.15254 8.36473 3.22925 8.50129 3.3658C8.63784 3.50235 8.71455 3.68756 8.71455 3.88067V7.27184H12.1057C12.2988 7.27184 12.484 7.34856 12.6206 7.48511C12.7571 7.62166 12.8339 7.80686 12.8339 7.99998C12.8339 8.19309 12.7571 8.37829 12.6206 8.51485C12.484 8.6514 12.2988 8.72811 12.1057 8.72811H8.71455V12.1193C8.71455 12.3124 8.63784 12.4976 8.50129 12.6342C8.36473 12.7707 8.17953 12.8474 7.98642 12.8474C7.7933 12.8474 7.6081 12.7707 7.47155 12.6342C7.335 12.4976 7.25828 12.3124 7.25828 12.1193V8.72811H3.86711C3.674 8.72811 3.4888 8.6514 3.35224 8.51485C3.21569 8.37829 3.13898 8.19309 3.13898 7.99998C3.13898 7.80686 3.21569 7.62166 3.35224 7.48511C3.4888 7.34856 3.674 7.27184 3.86711 7.27184H7.25828V3.88067C7.25828 3.68756 7.335 3.50235 7.47155 3.3658C7.6081 3.22925 7.7933 3.15254 7.98642 3.15254Z" fill="url(#paint0_linear_50_673)"/>
<defs>
<linearGradient id="paint0_linear_50_673" x1="7.98642" y1="0" x2="7.98642" y2="16" gradientUnits="userSpaceOnUse">
<stop stop-color="#FF7804"/>
<stop offset="1" stop-color="#F4D21B"/>
</linearGradient>
</defs>
</svg>
