<svg width="21" height="20" viewBox="0 0 21 20" fill="currentColor" xmlns="http://www.w3.org/2000/svg">
<path d="M9.33748 16.7235L3.25351 10.6395C3.16133 10.5473 3.09588 10.4474 3.05717 10.3399C3.01845 10.2324 2.9994 10.1171 3.00001 9.99422C3.00001 9.87131 3.01937 9.75609 3.05809 9.64854C3.0968 9.541 3.16195 9.44113 3.25351 9.34895L9.33748 3.26499C9.50648 3.09599 9.71788 3.0078 9.97168 3.00043C10.2255 2.99305 10.4443 3.08124 10.628 3.26499C10.8124 3.43399 10.9086 3.64539 10.9165 3.89919C10.9245 4.153 10.836 4.37178 10.6511 4.55552L6.13418 9.07241H16.4354C16.6966 9.07241 16.9157 9.1609 17.0927 9.33789C17.2697 9.51488 17.3579 9.73366 17.3573 9.99422C17.3573 10.2554 17.2691 10.4745 17.0927 10.6515C16.9163 10.8285 16.6972 10.9166 16.4354 10.916H6.13418L10.6511 15.4329C10.8201 15.6019 10.9086 15.817 10.9165 16.0782C10.9245 16.3394 10.836 16.5545 10.6511 16.7235C10.4821 16.9078 10.267 17 10.0058 17C9.74461 17 9.52184 16.9078 9.33748 16.7235Z" fill="currentColor"/>
</svg>
