<svg width="24" height="24" viewBox="0 0 24 24" fill="currentColor" xmlns="http://www.w3.org/2000/svg">
<path fill-rule="evenodd" clip-rule="evenodd" d="M3 8C3 5.23858 5.23858 3 8 3C10.7614 3 13 5.23858 13 8C13 10.7614 10.7614 13 8 13C5.23858 13 3 10.7614 3 8ZM8 1C4.13401 1 1 4.13401 1 8C1 11.866 4.13401 15 8 15C11.866 15 15 11.866 15 8C15 4.13401 11.866 1 8 1ZM18.4394 9.43302C17.922 9.24009 17.346 9.5032 17.1531 10.0207C16.9602 10.5382 17.2233 11.1141 17.7408 11.307C18.5285 11.6007 19.2295 12.0883 19.7789 12.7247C20.3283 13.3611 20.7083 14.1257 20.8839 14.9479C21.0595 15.7701 21.0249 16.6233 20.7833 17.4286C20.5418 18.2338 20.1011 18.9652 19.502 19.555C18.9029 20.1449 18.1647 20.5741 17.3558 20.803C16.5468 21.032 15.6932 21.0533 14.8739 20.8649C14.0545 20.6765 13.2959 20.2846 12.6681 19.7254C12.0404 19.1661 11.5638 18.4576 11.2825 17.6654C11.0976 17.1449 10.5259 16.8729 10.0054 17.0577C9.48501 17.2425 9.21295 17.8143 9.39778 18.3347C9.79169 19.4438 10.4589 20.4357 11.3377 21.2187C12.2166 22.0016 13.2787 22.5503 14.4257 22.8141C15.5728 23.0778 16.7679 23.048 17.9004 22.7275C19.033 22.4069 20.0664 21.806 20.9051 20.9802C21.7439 20.1545 22.3608 19.1306 22.699 18.0032C23.0372 16.8758 23.0856 15.6813 22.8398 14.5303C22.594 13.3792 22.062 12.3087 21.2928 11.4178C20.5237 10.5268 19.5423 9.84419 18.4394 9.43302ZM6 6C6 5.44772 6.44772 5 7 5H8C8.55228 5 9 5.44772 9 6V10C9 10.5523 8.55228 11 8 11C7.44772 11 7 10.5523 7 10V7C6.44772 7 6 6.55228 6 6ZM17.4222 13.1779C17.0344 12.7846 16.4013 12.7802 16.008 13.1679C15.6147 13.5556 15.6102 14.1888 15.998 14.5821L16.0009 14.585L13.883 16.7029C13.4925 17.0934 13.4925 17.7266 13.883 18.1171C14.2735 18.5076 14.9067 18.5076 15.2972 18.1171L18.1172 15.2971C18.5058 14.9085 18.508 14.2792 18.1222 13.8879L17.4222 13.1779Z" />
</svg>
