<svg width="800" height="800" viewBox="0 0 800 800" fill="currentColor" xmlns="http://www.w3.org/2000/svg">
<g clip-path="url(#clip0_1_2)">
<path d="M650 0H150C67.1385 0 0 67.1385 0 150V650C0 732.862 67.1385 800 150 800H650C732.862 800 800 732.862 800 650V150C800 67.1385 732.862 0 650 0ZM577.846 535.2L535.138 577.877C527.323 585.723 514.523 585.723 506.708 577.877L400 471.169L293.323 577.846C285.477 585.692 272.708 585.692 264.862 577.785L222.154 535.2C214.369 527.323 214.369 514.615 222.154 506.708L328.862 400.031L222.185 293.354C214.369 285.477 214.369 272.677 222.185 264.892L264.892 222.185C272.738 214.277 285.538 214.277 293.354 222.185L400 328.892L506.708 222.185C514.554 214.277 527.354 214.277 535.138 222.185L577.846 264.831C585.662 272.677 585.662 285.477 577.877 293.354L471.169 400.031L577.877 506.708C585.631 514.615 585.631 527.323 577.846 535.2Z"  fill="currentColor"/>
</g>
<defs>
<clipPath id="clip0_1_2">
<rect width="800" height="800" />
</clipPath>
</defs>
</svg>
