<svg width="10" height="12" viewBox="0 0 10 12" fill="currentColor" xmlns="http://www.w3.org/2000/svg">
<path d="M1.12941 12C0.818824 12 0.552941 11.8825 0.331765 11.6475C0.110588 11.4125 0 11.13 0 10.8V2.4H1.12941V10.8H7.34118V12H1.12941ZM3.38824 9.6C3.07765 9.6 2.81176 9.4825 2.59059 9.2475C2.36941 9.0125 2.25882 8.73 2.25882 8.4V1.2C2.25882 0.87 2.36941 0.5875 2.59059 0.3525C2.81176 0.1175 3.07765 0 3.38824 0H8.47059C8.78118 0 9.04706 0.1175 9.26824 0.3525C9.48941 0.5875 9.6 0.87 9.6 1.2V8.4C9.6 8.73 9.48941 9.0125 9.26824 9.2475C9.04706 9.4825 8.78118 9.6 8.47059 9.6H3.38824ZM3.38824 8.4H8.47059V1.2H3.38824V8.4Z" fill="currentColor"/>
</svg>
