<svg width="16" height="16" viewBox="0 0 16 16" fill="none" xmlns="http://www.w3.org/2000/svg">
<path fill-rule="evenodd" clip-rule="evenodd" d="M8 1.6C6.30261 1.6 4.67475 2.27428 3.47452 3.47452C2.27428 4.67475 1.6 6.30261 1.6 8V9.6H3.2C3.62435 9.6 4.03131 9.76857 4.33137 10.0686C4.63143 10.3687 4.8 10.7757 4.8 11.2V13.6C4.8 14.2365 4.54714 14.847 4.09706 15.2971C3.64697 15.7471 3.03652 16 2.4 16C1.76348 16 1.15303 15.7471 0.702944 15.2971C0.252856 14.847 0 14.2365 0 13.6V8C0 3.5816 3.5816 0 8 0C12.4184 0 16 3.5816 16 8V13.6C16 14.2365 15.7471 14.847 15.2971 15.2971C14.847 15.7471 14.2365 16 13.6 16C12.9635 16 12.353 15.7471 11.9029 15.2971C11.4529 14.847 11.2 14.2365 11.2 13.6V11.2C11.2 10.7757 11.3686 10.3687 11.6686 10.0686C11.9687 9.76857 12.3757 9.6 12.8 9.6H14.4V8C14.4 6.30261 13.7257 4.67475 12.5255 3.47452C11.3253 2.27428 9.69739 1.6 8 1.6Z" fill="currentColor"/>
</svg>
