<svg width="18" height="18" viewBox="0 0 18 18" fill="currentColor" xmlns="http://www.w3.org/2000/svg">
<path fill-rule="evenodd" clip-rule="evenodd" d="M3 2.25C3 2.05109 3.07902 1.86032 3.21967 1.71967C3.36032 1.57902 3.55109 1.5 3.75 1.5H14.25C14.4489 1.5 14.6397 1.57902 14.7803 1.71967C14.921 1.86032 15 2.05109 15 2.25V15.75C15 15.8934 14.9589 16.0337 14.8816 16.1545C14.8043 16.2752 14.694 16.3713 14.5638 16.4313C14.4335 16.4912 14.2889 16.5126 14.1468 16.4929C14.0048 16.4732 13.8715 16.4132 13.7625 16.32L12.9877 15.6562C12.8518 15.5399 12.6788 15.4759 12.4999 15.4759C12.3209 15.4759 12.1479 15.5399 12.012 15.6562L11.238 16.3193C11.102 16.4358 10.9289 16.4999 10.7498 16.4999C10.5706 16.4999 10.3975 16.4358 10.2615 16.3193L9.48825 15.6562C9.3523 15.5397 9.1791 15.4756 9 15.4756C8.8209 15.4756 8.6477 15.5397 8.51175 15.6562L7.7385 16.3193C7.60255 16.4358 7.42935 16.4999 7.25025 16.4999C7.07115 16.4999 6.89795 16.4358 6.762 16.3193L5.988 15.6562C5.8521 15.5399 5.67906 15.4759 5.50012 15.4759C5.32119 15.4759 5.14815 15.5399 5.01225 15.6562L4.23825 16.3193C4.12936 16.4126 3.99598 16.4728 3.85391 16.4927C3.71185 16.5126 3.56706 16.4913 3.43673 16.4314C3.30639 16.3715 3.19597 16.2754 3.11857 16.1547C3.04116 16.0339 3.00001 15.8934 3 15.75V2.25ZM6.75 4.5C6.55109 4.5 6.36032 4.57902 6.21967 4.71967C6.07902 4.86032 6 5.05109 6 5.25C6 5.44891 6.07902 5.63968 6.21967 5.78033C6.36032 5.92098 6.55109 6 6.75 6H11.25C11.4489 6 11.6397 5.92098 11.7803 5.78033C11.921 5.63968 12 5.44891 12 5.25C12 5.05109 11.921 4.86032 11.7803 4.71967C11.6397 4.57902 11.4489 4.5 11.25 4.5H6.75ZM6.75 7.5C6.55109 7.5 6.36032 7.57902 6.21967 7.71967C6.07902 7.86032 6 8.05109 6 8.25C6 8.44891 6.07902 8.63968 6.21967 8.78033C6.36032 8.92098 6.55109 9 6.75 9H11.25C11.4489 9 11.6397 8.92098 11.7803 8.78033C11.921 8.63968 12 8.44891 12 8.25C12 8.05109 11.921 7.86032 11.7803 7.71967C11.6397 7.57902 11.4489 7.5 11.25 7.5H6.75ZM7.5 11.25C7.5 11.0511 7.57902 10.8603 7.71967 10.7197C7.86032 10.579 8.05109 10.5 8.25 10.5H11.25C11.4489 10.5 11.6397 10.579 11.7803 10.7197C11.921 10.8603 12 11.0511 12 11.25C12 11.4489 11.921 11.6397 11.7803 11.7803C11.6397 11.921 11.4489 12 11.25 12H8.25C8.05109 12 7.86032 11.921 7.71967 11.7803C7.57902 11.6397 7.5 11.4489 7.5 11.25Z" fill="currentColor"/>
</svg>
