<svg width="14" height="14" viewBox="0 0 14 14"  xmlns="http://www.w3.org/2000/svg">
<path d="M6.99883 0C5.90679 0.000181954 4.82994 0.255862 3.85437 0.746598C2.87881 1.23733 2.03159 1.94951 1.38045 2.8262C0.729311 3.70288 0.292318 4.71975 0.104409 5.7955C-0.0834999 6.87125 -0.0171131 7.97605 0.298262 9.02156C0.613637 10.0671 1.16925 11.0243 1.92068 11.8167C2.67212 12.6091 3.59852 13.2147 4.62583 13.5851C5.65315 13.9555 6.75287 14.0804 7.83707 13.9498C8.92128 13.8192 9.95989 13.4367 10.8699 12.833C10.9549 12.7765 11.028 12.7037 11.085 12.6189C11.1419 12.5341 11.1816 12.439 11.2017 12.3388C11.2219 12.2387 11.2221 12.1356 11.2025 12.0354C11.1828 11.9351 11.1435 11.8398 11.087 11.7547C11.0304 11.6697 10.9577 11.5966 10.8729 11.5396C10.7881 11.4827 10.6929 11.443 10.5928 11.4228C10.4927 11.4027 10.3895 11.4024 10.2893 11.4221C10.1891 11.4418 10.0937 11.4811 10.0087 11.5376C8.99783 12.2083 7.79197 12.5222 6.58242 12.4295C5.37286 12.3369 4.22889 11.8429 3.33201 11.0261C2.43513 10.2093 1.83671 9.11634 1.6317 7.92068C1.42669 6.72503 1.62683 5.49516 2.20037 4.42621C2.7739 3.35725 3.68799 2.51044 4.79759 2.02012C5.90718 1.52981 7.14874 1.42409 8.32526 1.71972C9.50179 2.01535 10.5459 2.69541 11.2919 3.65199C12.0379 4.60858 12.4432 5.7869 12.4433 7C12.4433 7.60201 12.3353 8.10723 12.1392 8.42263C11.9683 8.69753 11.7491 8.81481 11.4062 8.81481C11.0634 8.81481 10.8442 8.69753 10.6733 8.42263C10.4772 8.10723 10.3692 7.60201 10.3692 7V4.40741C10.3692 4.22075 10.3021 4.04031 10.1801 3.89904C10.0581 3.75777 9.88938 3.66509 9.70471 3.63792C9.52004 3.61075 9.33176 3.65091 9.17424 3.75106C9.01673 3.85122 8.90049 4.00468 8.84676 4.18344C8.31201 3.83192 7.68825 3.63991 7.04839 3.62984C6.40854 3.61977 5.77904 3.79207 5.2335 4.12658C4.68796 4.4611 4.24893 4.94401 3.96773 5.51885C3.68653 6.09369 3.57479 6.7367 3.64557 7.37271C3.71636 8.00871 3.96674 8.61143 4.36744 9.11037C4.76815 9.60932 5.30261 9.98389 5.90835 10.1903C6.51409 10.3967 7.16606 10.4263 7.78805 10.2758C8.41003 10.1253 8.97631 9.80087 9.42069 9.34039C9.87015 10.0012 10.5516 10.3704 11.4062 10.3704C13.0054 10.3704 13.9988 9.07895 13.9988 7C13.9967 5.14413 13.2586 3.36486 11.9463 2.05256C10.634 0.740258 8.85471 0.00208931 6.99883 0ZM6.99883 8.81481C6.6399 8.81481 6.28902 8.70838 5.99058 8.50896C5.69213 8.30955 5.45952 8.02611 5.32216 7.6945C5.1848 7.36288 5.14887 6.99799 5.21889 6.64595C5.28892 6.29391 5.46176 5.97054 5.71557 5.71673C5.96937 5.46293 6.29274 5.29008 6.64478 5.22006C6.99682 5.15003 7.36172 5.18597 7.69333 5.32333C8.02495 5.46069 8.30838 5.6933 8.5078 5.99174C8.70721 6.29019 8.81365 6.64106 8.81365 7C8.81311 7.48115 8.62173 7.94244 8.28151 8.28267C7.94128 8.6229 7.47999 8.81427 6.99883 8.81481Z" fill="currentColor"/>
</svg>
