<svg width="17" height="17" viewBox="0 0 17 17" fill="none" xmlns="http://www.w3.org/2000/svg">
<path d="M16.3056 8.39874C16.3056 12.8169 12.724 16.3987 8.30589 16.3987C3.88774 16.3987 0.306152 12.8174 0.306152 8.39874C0.306152 3.98033 3.88748 0.398743 8.30589 0.398743C12.724 0.398743 16.3056 3.9806 16.3056 8.39874ZM8.30589 2.18703C4.87506 2.18703 2.09392 4.96818 2.09392 8.39901C2.09392 11.8296 4.8748 14.6112 8.30589 14.6112C11.7367 14.6112 14.5179 11.8296 14.5179 8.39901C14.5181 4.96844 11.7367 2.18703 8.30589 2.18703ZM6.66836 6.53982C6.66836 5.27787 7.47777 4.83481 8.28665 4.83481C8.76818 4.83481 9.1804 4.87935 9.50986 5.28735C10.2805 6.2412 9.42051 7.16684 8.44057 7.65681C7.74713 8.00366 7.41952 8.59141 7.41952 9.40978V11.2405H9.24945V10.1615C9.24945 8.51418 10.309 8.92825 11.0797 7.89797C12.1218 6.50424 11.8964 4.93312 10.4821 3.81376C8.86438 2.53257 7.03366 3.16829 6.5234 3.51514C6.09932 3.80322 4.597 4.87329 4.88586 7.17527L6.66414 7.17896C6.66414 7.17896 6.66783 6.96363 6.66783 6.53982H6.66836ZM9.24998 13.7449V11.8667H7.42005V13.7449H9.24998Z" fill="currentColor"/>
</svg>
