<svg width="42" height="15" viewBox="0 0 42 15" fill="none" xmlns="http://www.w3.org/2000/svg">
<path d="M5.08164 2L41 2V12H1L5.08164 2Z" fill="#F44336"/>
<path d="M12.96 5.49L12.84 6.165H11.41L11.28 6.92H12.35L12.23 7.57H11.16L10.91 9H10.055L10.675 5.49H12.96ZM13.7594 8.35H14.8794L14.7644 9H12.7894L13.4094 5.49H14.2644L13.7594 8.35ZM17.4672 8.38H16.1572L15.8372 9H14.9422L16.8322 5.49H17.8222L18.4722 9H17.5672L17.4672 8.38ZM17.3672 7.73L17.1622 6.43L16.4922 7.73H17.3672ZM20.2537 9.035C19.8737 9.035 19.5637 8.95333 19.3237 8.79C19.0871 8.62333 18.9687 8.38833 18.9687 8.085C18.9687 8.055 18.9721 8.01 18.9787 7.95H19.8687C19.8587 8.07667 19.8887 8.17667 19.9587 8.25C20.0287 8.32333 20.1354 8.36 20.2787 8.36C20.4087 8.36 20.5104 8.33167 20.5837 8.275C20.6604 8.21833 20.6987 8.13833 20.6987 8.035C20.6987 7.92833 20.6504 7.84167 20.5537 7.775C20.4604 7.70833 20.3137 7.63333 20.1137 7.55C19.9204 7.47 19.7621 7.395 19.6387 7.325C19.5187 7.25167 19.4137 7.15333 19.3237 7.03C19.2337 6.90667 19.1887 6.75167 19.1887 6.565C19.1854 6.335 19.2421 6.135 19.3587 5.965C19.4754 5.795 19.6371 5.665 19.8437 5.575C20.0504 5.485 20.2871 5.44 20.5537 5.44C20.7937 5.44 21.0071 5.47833 21.1937 5.555C21.3804 5.62833 21.5254 5.73667 21.6287 5.88C21.7321 6.02 21.7837 6.18667 21.7837 6.38C21.7837 6.43 21.7821 6.46667 21.7787 6.49H20.8687C20.8721 6.47667 20.8737 6.45667 20.8737 6.43C20.8737 6.33667 20.8404 6.26167 20.7737 6.205C20.7104 6.145 20.6221 6.115 20.5087 6.115C20.3887 6.115 20.2904 6.145 20.2137 6.205C20.1404 6.26167 20.1037 6.34 20.1037 6.44C20.1037 6.54 20.1504 6.625 20.2437 6.695C20.3371 6.76167 20.4821 6.84 20.6787 6.93C20.8754 7.02 21.0354 7.10333 21.1587 7.18C21.2854 7.25667 21.3937 7.36 21.4837 7.49C21.5737 7.61667 21.6187 7.77333 21.6187 7.96C21.6187 8.16667 21.5637 8.35167 21.4537 8.515C21.3437 8.67833 21.1854 8.80667 20.9787 8.9C20.7721 8.99 20.5304 9.035 20.2537 9.035ZM25.6291 5.49L25.0091 9H24.1541L24.4091 7.545H23.0791L22.8241 9H21.9691L22.5891 5.49H23.4441L23.1991 6.87H24.5291L24.7741 5.49H25.6291ZM27.0213 9.035C26.6413 9.035 26.3313 8.95333 26.0913 8.79C25.8546 8.62333 25.7363 8.38833 25.7363 8.085C25.7363 8.055 25.7396 8.01 25.7463 7.95H26.6363C26.6263 8.07667 26.6563 8.17667 26.7263 8.25C26.7963 8.32333 26.903 8.36 27.0463 8.36C27.1763 8.36 27.278 8.33167 27.3513 8.275C27.428 8.21833 27.4663 8.13833 27.4663 8.035C27.4663 7.92833 27.418 7.84167 27.3213 7.775C27.228 7.70833 27.0813 7.63333 26.8813 7.55C26.688 7.47 26.5296 7.395 26.4063 7.325C26.2863 7.25167 26.1813 7.15333 26.0913 7.03C26.0013 6.90667 25.9563 6.75167 25.9563 6.565C25.953 6.335 26.0096 6.135 26.1263 5.965C26.243 5.795 26.4046 5.665 26.6113 5.575C26.818 5.485 27.0546 5.44 27.3213 5.44C27.5613 5.44 27.7746 5.47833 27.9613 5.555C28.148 5.62833 28.293 5.73667 28.3963 5.88C28.4996 6.02 28.5513 6.18667 28.5513 6.38C28.5513 6.43 28.5496 6.46667 28.5463 6.49H27.6363C27.6396 6.47667 27.6413 6.45667 27.6413 6.43C27.6413 6.33667 27.608 6.26167 27.5413 6.205C27.478 6.145 27.3896 6.115 27.2763 6.115C27.1563 6.115 27.058 6.145 26.9813 6.205C26.908 6.26167 26.8713 6.34 26.8713 6.44C26.8713 6.54 26.918 6.625 27.0113 6.695C27.1046 6.76167 27.2496 6.84 27.4463 6.93C27.643 7.02 27.803 7.10333 27.9263 7.18C28.053 7.25667 28.1613 7.36 28.2513 7.49C28.3413 7.61667 28.3863 7.77333 28.3863 7.96C28.3863 8.16667 28.3313 8.35167 28.2213 8.515C28.1113 8.67833 27.953 8.80667 27.7463 8.9C27.5396 8.99 27.298 9.035 27.0213 9.035ZM31.0316 8.38H29.7216L29.4016 9H28.5066L30.3966 5.49H31.3866L32.0366 9H31.1316L31.0316 8.38ZM30.9316 7.73L30.7266 6.43L30.0566 7.73H30.9316ZM33.3932 8.35H34.5132L34.3982 9H32.4232L33.0432 5.49H33.8982L33.3932 8.35ZM36.161 6.165L36.036 6.895H37.181L37.066 7.54H35.921L35.781 8.325H37.076L36.956 9H34.806L35.426 5.49H37.576L37.456 6.165H36.161ZM39.2811 5.365L38.7561 7.76H38.0311L38.3561 5.365H39.2811ZM38.1811 9.04C38.0477 9.04 37.9411 9.005 37.8611 8.935C37.7844 8.86167 37.7461 8.77 37.7461 8.66C37.7461 8.50667 37.8027 8.37667 37.9161 8.27C38.0327 8.16333 38.1761 8.11 38.3461 8.11C38.4761 8.11 38.5794 8.14667 38.6561 8.22C38.7327 8.29 38.7711 8.38167 38.7711 8.495C38.7711 8.645 38.7127 8.77333 38.5961 8.88C38.4827 8.98667 38.3444 9.04 38.1811 9.04Z" fill="white"/>
<path d="M8.61294 7.0607L5.36554 6.16886L6.81478 0.891839L1.44927 7.71256L4.69666 8.6044L3.24742 13.8814L8.61294 7.0607Z" fill="#F4D21B"/>
</svg>
