<svg width="19" height="16" viewBox="0 0 19 16" fill="none" xmlns="http://www.w3.org/2000/svg">
<path d="M11.7921 0.00241337C12.3832 0.00242839 12.964 0.158051 13.4759 0.45364C13.9879 0.74923 14.413 1.17437 14.7086 1.68633C15.0041 2.1983 15.1597 2.77904 15.1597 3.3702C15.1597 3.96136 15.0041 4.5421 14.7085 5.05406H18.5276V6.73794H16.8437V15.1574C16.8437 15.3807 16.755 15.5948 16.5971 15.7527C16.4392 15.9106 16.2251 15.9993 16.0018 15.9993H2.53071C2.30741 15.9993 2.09326 15.9106 1.93536 15.7527C1.77747 15.5948 1.68877 15.3807 1.68877 15.1574V6.73794H0.00488281V5.05406H3.82309C3.40438 4.33062 3.26967 3.47732 3.44514 2.66008C3.62062 1.84283 4.09374 1.12005 4.77251 0.632251C5.45129 0.144456 6.28721 -0.073486 7.11775 0.0208008C7.94828 0.115088 8.71408 0.514865 9.26624 1.1424C9.58161 0.783474 9.97003 0.496082 10.4055 0.299475C10.841 0.102868 11.3134 0.001586 11.7912 0.00241337M8.42345 6.73794H3.37181V14.3154H8.42345V6.73794ZM15.159 6.73794H10.1073V14.3154H15.159V6.73794ZM6.73957 1.6863C6.30461 1.68732 5.88692 1.85663 5.57399 2.15873C5.26107 2.46084 5.07718 2.87232 5.06086 3.30698C5.04453 3.74163 5.19704 4.16575 5.48642 4.49048C5.77581 4.81521 6.17962 5.01536 6.61328 5.04901L6.73957 5.05406H8.42345V3.37018C8.42347 2.96778 8.27939 2.57868 8.01729 2.27335C7.7552 1.96801 7.39243 1.76662 6.99468 1.70566L6.86502 1.69051L6.73957 1.6863ZM11.7912 1.6863C11.3664 1.68616 10.9572 1.84661 10.6457 2.13547C10.3342 2.42433 10.1434 2.82026 10.1115 3.24389L10.1073 3.37018V5.05406H11.7912C12.2159 5.05398 12.6249 4.89344 12.9362 4.6046C13.2475 4.31576 13.4382 3.91995 13.47 3.49647L13.4751 3.37018C13.4751 2.92358 13.2977 2.49528 12.9819 2.17949C12.6661 1.8637 12.2378 1.6863 11.7912 1.6863Z" fill="currentColor"/>
</svg>
