<svg width="10" height="10" viewBox="0 0 10 10" fill="currentColor"  xmlns="http://www.w3.org/2000/svg">
<path d="M10 5C10 7.76134 7.76143 10 5 10C2.23857 10 0 7.76167 0 5C0 2.23849 2.2384 0 5 0C7.76143 0 10 2.23866 10 5ZM5 1.11768C2.85566 1.11768 1.11739 2.8559 1.11739 5.00016C1.11739 7.14427 2.8555 8.88281 5 8.88281C7.14434 8.88281 8.88261 7.14427 8.88261 5.00016C8.88278 2.85606 7.14434 1.11768 5 1.11768ZM3.97651 3.83817C3.97651 3.04945 4.48241 2.77254 4.98797 2.77254C5.28894 2.77254 5.54659 2.80038 5.7525 3.05538C6.23419 3.65153 5.69666 4.23006 5.08418 4.53629C4.65076 4.75307 4.446 5.12042 4.446 5.6319V6.7761H5.58975V6.1017C5.58975 5.07215 6.25198 5.33094 6.73366 4.68702C7.38502 3.81593 7.24417 2.83399 6.36021 2.13439C5.34907 1.33364 4.20483 1.73097 3.88591 1.94775C3.62085 2.1278 2.68187 2.79659 2.86241 4.23533L3.97387 4.23764C3.97387 4.23764 3.97618 4.10305 3.97618 3.83817H3.97651ZM5.59008 8.34135V7.1675H4.44633V8.34135H5.59008Z" fill="currentColor" />
</svg>
