<svg width="800" height="800" viewBox="0 0 800 800" xmlns="http://www.w3.org/2000/svg">
<path d="M698.578 174.904L582.819 115.767L523.674 0L399.998 40.0404L276.323 0L217.189 115.767L101.422 174.904L141.463 298.576L101.426 422.255L217.185 481.393L232.992 512.337V799.996L400.013 716.51L567.008 800V512.333L582.815 481.393L698.574 422.255L658.537 298.576L698.578 174.904ZM400.017 654.097L288.824 709.677V593.117L400.002 557.126L511.183 593.121V709.677L400.017 654.097ZM541.327 439.901L495.611 529.394L400.002 498.443L304.401 529.394L258.684 439.901L169.195 394.184L200.146 298.576L169.202 202.975L258.688 157.258L304.404 67.7687L400.006 98.7201L495.614 67.7687L541.331 157.258L630.813 202.975L599.869 298.576L630.82 394.184L541.327 439.901Z" fill="currentColor"/>
<path d="M400.013 145.49C315.589 145.49 246.905 214.163 246.905 298.572C246.905 383 315.589 451.688 400.013 451.688C484.426 451.688 553.103 383 553.103 298.572C553.103 214.167 484.426 145.49 400.013 145.49ZM400.013 395.859C346.373 395.859 302.733 352.216 302.733 298.572C302.733 244.947 346.373 201.318 400.013 201.318C453.642 201.318 497.274 244.947 497.274 298.572C497.274 352.22 453.642 395.859 400.013 395.859Z" fill="currentColor"/>
</svg>
