<svg width="21" height="13" viewBox="0 0 21 13" fill="none" xmlns="http://www.w3.org/2000/svg">
<path fill-rule="evenodd" clip-rule="evenodd" d="M1.5 10C1.89782 10 2.27936 10.158 2.56066 10.4393C2.84196 10.7206 3 11.1022 3 11.5C3 11.8978 2.84196 12.2794 2.56066 12.5607C2.27936 12.842 1.89782 13 1.5 13C1.10218 13 0.720644 12.842 0.43934 12.5607C0.158035 12.2794 0 11.8978 0 11.5C0 11.1022 0.158035 10.7206 0.43934 10.4393C0.720644 10.158 1.10218 10 1.5 10ZM19.499 10.5C20.052 10.5 20.5 10.944 20.5 11.5C20.5 12.0525 20.055 12.5 19.499 12.5H5.501C5.36952 12.5004 5.23926 12.4748 5.1177 12.4247C4.99614 12.3746 4.88567 12.301 4.79266 12.208C4.69964 12.1151 4.6259 12.0047 4.57568 11.8832C4.52545 11.7617 4.49974 11.6315 4.5 11.5C4.5 10.9475 4.945 10.5 5.501 10.5H19.499ZM1.5 5C1.89782 5 2.27936 5.15804 2.56066 5.43934C2.84196 5.72064 3 6.10218 3 6.5C3 6.89782 2.84196 7.27936 2.56066 7.56066C2.27936 7.84196 1.89782 8 1.5 8C1.10218 8 0.720644 7.84196 0.43934 7.56066C0.158035 7.27936 0 6.89782 0 6.5C0 6.10218 0.158035 5.72064 0.43934 5.43934C0.720644 5.15804 1.10218 5 1.5 5ZM19.499 5.5C20.052 5.5 20.5 5.944 20.5 6.5C20.5 7.0525 20.055 7.5 19.499 7.5H5.501C5.36952 7.5004 5.23926 7.47481 5.1177 7.4247C4.99614 7.3746 4.88567 7.30097 4.79266 7.20805C4.69964 7.11513 4.6259 7.00474 4.57568 6.88323C4.52545 6.76172 4.49974 6.63148 4.5 6.5C4.5 5.9475 4.945 5.5 5.501 5.5H19.499ZM1.5 0C1.89782 0 2.27936 0.158035 2.56066 0.43934C2.84196 0.720644 3 1.10218 3 1.5C3 1.89782 2.84196 2.27936 2.56066 2.56066C2.27936 2.84196 1.89782 3 1.5 3C1.10218 3 0.720644 2.84196 0.43934 2.56066C0.158035 2.27936 0 1.89782 0 1.5C0 1.10218 0.158035 0.720644 0.43934 0.43934C0.720644 0.158035 1.10218 0 1.5 0ZM19.499 0.5C20.052 0.5 20.5 0.944 20.5 1.5C20.5 2.0525 20.055 2.5 19.499 2.5H5.501C5.36952 2.5004 5.23926 2.47481 5.1177 2.4247C4.99614 2.3746 4.88567 2.30097 4.79266 2.20805C4.69964 2.11513 4.6259 2.00474 4.57568 1.88323C4.52545 1.76172 4.49974 1.63148 4.5 1.5C4.5 0.9475 4.945 0.5 5.501 0.5H19.499Z" fill="currentColor"/>
</svg>
