<svg width="16" height="16" viewBox="0 0 16 16" fill="none" xmlns="http://www.w3.org/2000/svg">
<path d="M7.22581 1.80645V0.774194C7.22581 0.568865 7.30737 0.371945 7.45256 0.226756C7.59775 0.0815666 7.79467 0 8 0C8.20533 0 8.40225 0.0815666 8.54744 0.226756C8.69263 0.371945 8.77419 0.568865 8.77419 0.774194V1.80645C8.77419 2.01178 8.69263 2.2087 8.54744 2.35389C8.40225 2.49908 8.20533 2.58065 8 2.58065C7.79467 2.58065 7.59775 2.49908 7.45256 2.35389C7.30737 2.2087 7.22581 2.01178 7.22581 1.80645ZM12.3871 8C12.3871 8.86769 12.1298 9.71589 11.6477 10.4373C11.1657 11.1588 10.4805 11.7211 9.67887 12.0531C8.87723 12.3852 7.99513 12.4721 7.14412 12.3028C6.29311 12.1335 5.5114 11.7157 4.89785 11.1021C4.28431 10.4886 3.86648 9.70689 3.6972 8.85588C3.52792 8.00487 3.6148 7.12277 3.94685 6.32113C4.2789 5.51949 4.84121 4.83432 5.56266 4.35226C6.28411 3.8702 7.13231 3.6129 8 3.6129C9.16316 3.6141 10.2783 4.07669 11.1008 4.89917C11.9233 5.72166 12.3859 6.83684 12.3871 8ZM10.8387 8C10.8387 7.43856 10.6722 6.88972 10.3603 6.4229C10.0484 5.95607 9.60503 5.59223 9.08633 5.37737C8.56762 5.16252 7.99685 5.1063 7.44619 5.21584C6.89554 5.32537 6.38973 5.59573 5.99273 5.99273C5.59573 6.38973 5.32537 6.89554 5.21584 7.44619C5.1063 7.99685 5.16252 8.56762 5.37737 9.08633C5.59223 9.60503 5.95607 10.0484 6.4229 10.3603C6.88972 10.6722 7.43856 10.8387 8 10.8387C8.75261 10.8379 9.47415 10.5385 10.0063 10.0063C10.5385 9.47415 10.8379 8.75261 10.8387 8ZM3.06516 4.16065C3.13718 4.23266 3.22267 4.28979 3.31676 4.32876C3.41086 4.36773 3.5117 4.38779 3.61355 4.38779C3.71539 4.38779 3.81624 4.36773 3.91033 4.32876C4.00443 4.28979 4.08992 4.23266 4.16194 4.16065C4.23395 4.08863 4.29108 4.00314 4.33005 3.90904C4.36902 3.81495 4.38908 3.7141 4.38908 3.61226C4.38908 3.51041 4.36902 3.40957 4.33005 3.31547C4.29108 3.22138 4.23395 3.13589 4.16194 3.06387L3.38774 2.28968C3.2423 2.14424 3.04504 2.06253 2.83935 2.06253C2.63367 2.06253 2.43641 2.14424 2.29097 2.28968C2.14553 2.43512 2.06382 2.63238 2.06382 2.83806C2.06382 3.04375 2.14553 3.24101 2.29097 3.38645L3.06516 4.16065ZM3.06516 11.8381L2.29097 12.6123C2.21895 12.6843 2.16183 12.7698 2.12285 12.8639C2.08388 12.958 2.06382 13.0588 2.06382 13.1606C2.06382 13.2625 2.08388 13.3633 2.12285 13.4574C2.16183 13.5515 2.21895 13.637 2.29097 13.709C2.43641 13.8545 2.63367 13.9362 2.83935 13.9362C2.9412 13.9362 3.04205 13.9161 3.13614 13.8771C3.23023 13.8382 3.31573 13.781 3.38774 13.709L4.16194 12.9348C4.30738 12.7894 4.38908 12.5921 4.38908 12.3865C4.38908 12.1808 4.30738 11.9835 4.16194 11.8381C4.01649 11.6926 3.81923 11.6109 3.61355 11.6109C3.40786 11.6109 3.2106 11.6926 3.06516 11.8381ZM12.3871 4.3871C12.4888 4.38718 12.5895 4.36722 12.6835 4.32836C12.7775 4.28951 12.8629 4.23252 12.9348 4.16065L13.709 3.38645C13.781 3.31444 13.8382 3.22894 13.8771 3.13485C13.9161 3.04076 13.9362 2.93991 13.9362 2.83806C13.9362 2.73622 13.9161 2.63537 13.8771 2.54128C13.8382 2.44719 13.781 2.36169 13.709 2.28968C13.637 2.21766 13.5515 2.16054 13.4574 2.12156C13.3633 2.08259 13.2625 2.06253 13.1606 2.06253C13.0588 2.06253 12.958 2.08259 12.8639 2.12156C12.7698 2.16054 12.6843 2.21766 12.6123 2.28968L11.8381 3.06387C11.7291 3.17215 11.6549 3.31039 11.6248 3.46099C11.5946 3.61159 11.61 3.76775 11.6688 3.90961C11.7277 4.05147 11.8274 4.17262 11.9553 4.25765C12.0832 4.34267 12.2335 4.38773 12.3871 4.3871ZM12.9348 11.8394C12.7894 11.6939 12.5921 11.6122 12.3865 11.6122C12.1808 11.6122 11.9835 11.6939 11.8381 11.8394C11.6926 11.9848 11.6109 12.1821 11.6109 12.3877C11.6109 12.5934 11.6926 12.7907 11.8381 12.9361L12.6123 13.7103C12.7577 13.8558 12.955 13.9375 13.1606 13.9375C13.3663 13.9375 13.5636 13.8558 13.709 13.7103C13.8545 13.5649 13.9362 13.3676 13.9362 13.1619C13.9362 12.9562 13.8545 12.759 13.709 12.6135L12.9348 11.8394ZM2.58065 8C2.58065 7.79467 2.49908 7.59775 2.35389 7.45256C2.2087 7.30737 2.01178 7.22581 1.80645 7.22581H0.774194C0.568865 7.22581 0.371945 7.30737 0.226756 7.45256C0.0815666 7.59775 0 7.79467 0 8C0 8.20533 0.0815666 8.40225 0.226756 8.54744C0.371945 8.69263 0.568865 8.77419 0.774194 8.77419H1.80645C2.01178 8.77419 2.2087 8.69263 2.35389 8.54744C2.49908 8.40225 2.58065 8.20533 2.58065 8ZM8 13.4194C7.79467 13.4194 7.59775 13.5009 7.45256 13.6461C7.30737 13.7913 7.22581 13.9882 7.22581 14.1935V15.2258C7.22581 15.4311 7.30737 15.6281 7.45256 15.7732C7.59775 15.9184 7.79467 16 8 16C8.20533 16 8.40225 15.9184 8.54744 15.7732C8.69263 15.6281 8.77419 15.4311 8.77419 15.2258V14.1935C8.77419 13.9882 8.69263 13.7913 8.54744 13.6461C8.40225 13.5009 8.20533 13.4194 8 13.4194ZM15.2258 7.22581H14.1935C13.9882 7.22581 13.7913 7.30737 13.6461 7.45256C13.5009 7.59775 13.4194 7.79467 13.4194 8C13.4194 8.20533 13.5009 8.40225 13.6461 8.54744C13.7913 8.69263 13.9882 8.77419 14.1935 8.77419H15.2258C15.4311 8.77419 15.6281 8.69263 15.7732 8.54744C15.9184 8.40225 16 8.20533 16 8C16 7.79467 15.9184 7.59775 15.7732 7.45256C15.6281 7.30737 15.4311 7.22581 15.2258 7.22581Z" fill="currentColor"/>
</svg>
