<svg width="14" height="18" viewBox="0 0 14 18" fill="none" xmlns="http://www.w3.org/2000/svg">
<path d="M13.1968 6.60232C13.1975 5.49034 12.9171 4.39623 12.3817 3.42161C11.8464 2.44699 11.0734 1.62347 10.1346 1.02755C9.19576 0.431624 8.12157 0.0826232 7.01177 0.012962C5.90198 -0.0566993 4.79257 0.155238 3.78661 0.629089C2.78065 1.10294 1.91075 1.82334 1.25772 2.72336C0.604684 3.62339 0.189698 4.67385 0.0513046 5.77719C-0.0870893 6.88052 0.0555974 8.00094 0.466112 9.03437C0.876626 10.0678 1.54165 10.9807 2.39942 11.6883V17.3997C2.39935 17.502 2.42544 17.6026 2.47522 17.692C2.52499 17.7814 2.5968 17.8566 2.68381 17.9104C2.77083 17.9642 2.87015 17.9948 2.97235 17.9994C3.07455 18.004 3.17622 17.9824 3.26771 17.9366L6.59841 16.275L9.92985 17.9403C10.0134 17.9803 10.105 18.0006 10.1975 17.9996C10.3566 17.9996 10.5092 17.9364 10.6217 17.8239C10.7342 17.7114 10.7974 17.5588 10.7974 17.3997V11.6883C11.5479 11.0702 12.1523 10.2936 12.5671 9.41425C12.982 8.5349 13.197 7.57462 13.1968 6.60232ZM1.19971 6.60232C1.19971 5.53456 1.51634 4.49078 2.10956 3.60297C2.70277 2.71516 3.54593 2.02319 4.53242 1.61458C5.5189 1.20597 6.6044 1.09905 7.65164 1.30736C8.69888 1.51567 9.66084 2.02985 10.4159 2.78487C11.1709 3.53989 11.6851 4.50185 11.8934 5.54909C12.1017 6.59633 11.9948 7.68183 11.5862 8.66831C11.1775 9.6548 10.4856 10.498 9.59776 11.0912C8.70995 11.6844 7.66617 12.001 6.59841 12.001C5.16707 11.9994 3.79481 11.4301 2.78271 10.418C1.7706 9.40592 1.2013 8.03366 1.19971 6.60232ZM2.39942 6.60232C2.39942 5.77184 2.64569 4.96001 3.10708 4.26949C3.56847 3.57897 4.22426 3.04078 4.99152 2.72297C5.75879 2.40516 6.60306 2.322 7.41759 2.48402C8.23211 2.64604 8.9803 3.04595 9.56754 3.63319C10.1548 4.22043 10.5547 4.96862 10.7167 5.78314C10.8787 6.59767 10.7956 7.44194 10.4778 8.20921C10.16 8.97647 9.62176 9.63226 8.93124 10.0937C8.24072 10.555 7.42889 10.8013 6.59841 10.8013C5.48513 10.8001 4.4178 10.3573 3.63059 9.57014C2.84339 8.78294 2.40061 7.7156 2.39942 6.60232Z" fill="currentColor"/>
</svg>
