<svg width="24" height="24" viewBox="0 0 24 24" fill="currentColor" xmlns="http://www.w3.org/2000/svg">
<path d="M13.9383 19C13.9385 19.5046 13.7479 19.9906 13.4048 20.3605C13.0617 20.7305 12.5915 20.9572 12.0883 20.995L11.9383 21H9.93832C9.43375 21.0002 8.94776 20.8096 8.57778 20.4665C8.2078 20.1234 7.98117 19.6532 7.94333 19.15L7.93832 19H13.9383ZM10.9383 2C12.7533 1.99997 14.4973 2.70489 15.8026 3.96607C17.1078 5.22726 17.8721 6.94609 17.9343 8.76L17.9383 9V12.764L19.7603 16.408C19.8398 16.567 19.8796 16.7429 19.8763 16.9206C19.873 17.0984 19.8266 17.2727 19.7412 17.4286C19.6558 17.5845 19.5338 17.7174 19.3858 17.8158C19.2378 17.9143 19.0681 17.9754 18.8913 17.994L18.7763 18H3.10033C2.92249 18.0001 2.74729 17.957 2.58975 17.8745C2.4322 17.792 2.297 17.6725 2.19574 17.5264C2.09448 17.3802 2.03017 17.2116 2.00833 17.0351C1.98649 16.8586 2.00776 16.6795 2.07033 16.513L2.11633 16.408L3.93833 12.764V9C3.93833 7.14348 4.67582 5.36301 5.98858 4.05025C7.30133 2.7375 9.08181 2 10.9383 2Z" fill="currentColor" />
</svg>
