<svg width="18" height="12" viewBox="0 0 18 12" fill="none" xmlns="http://www.w3.org/2000/svg">
<path d="M8.90274 0C4.47897 0 0 1.37636 0 4.00623C0 6.6361 4.47897 8.01246 8.90274 8.01246C13.3274 8.01246 17.8055 6.6361 17.8055 4.00623C17.8055 1.37636 13.3274 0 8.90274 0ZM4.45137 8.84754V11.5184C5.55264 11.7846 6.77053 11.9475 8.01246 12V9.32918C6.8128 9.28244 5.62035 9.12116 4.45137 8.84754ZM9.79301 9.32829V11.9991C10.9928 11.9533 12.1853 11.792 13.3541 11.5175V8.84665C12.1853 9.1212 10.9928 9.28249 9.79301 9.32829ZM15.1347 8.27687V10.9477C16.738 10.2755 17.8055 9.29446 17.8055 8.01246V5.34164C17.8055 6.62364 16.738 7.60472 15.1347 8.27687ZM2.67082 10.9477V8.27687C1.06833 7.60472 0 6.62275 0 5.34164V8.01246C0 9.29357 1.06833 10.2755 2.67082 10.9477Z" fill="currentColor"/>
</svg>
