<svg width="14" height="12" viewBox="0 0 14 12" fill="none" xmlns="http://www.w3.org/2000/svg">
<path d="M9.66683 3.33333V1.33333H4.3335V3.33333H3.00016V0H11.0002V3.33333H9.66683ZM11.0002 6.33333C11.1891 6.33333 11.3474 6.26944 11.4752 6.14167C11.6029 6.01389 11.6668 5.85556 11.6668 5.66667C11.6668 5.47778 11.6029 5.31944 11.4752 5.19167C11.3474 5.06389 11.1891 5 11.0002 5C10.8113 5 10.6529 5.06389 10.5252 5.19167C10.3974 5.31944 10.3335 5.47778 10.3335 5.66667C10.3335 5.85556 10.3974 6.01389 10.5252 6.14167C10.6529 6.26944 10.8113 6.33333 11.0002 6.33333ZM9.66683 10.6667V8H4.3335V10.6667H9.66683ZM11.0002 12H3.00016V9.33333H0.333496V5.33333C0.333496 4.76667 0.52794 4.29167 0.916829 3.90833C1.30572 3.525 1.77794 3.33333 2.3335 3.33333H11.6668C12.2335 3.33333 12.7085 3.525 13.0918 3.90833C13.4752 4.29167 13.6668 4.76667 13.6668 5.33333V9.33333H11.0002V12ZM12.3335 8V5.33333C12.3335 5.14444 12.2696 4.98611 12.1418 4.85833C12.0141 4.73056 11.8557 4.66667 11.6668 4.66667H2.3335C2.14461 4.66667 1.98627 4.73056 1.8585 4.85833C1.73072 4.98611 1.66683 5.14444 1.66683 5.33333V8H3.00016V6.66667H11.0002V8H12.3335Z" fill="currentColor"/>
</svg>
