<svg width="11" height="14" viewBox="0 0 11 14" fill="currentColor" xmlns="http://www.w3.org/2000/svg">
<path d="M5.33333 10.6667C5.68696 10.6667 6.02609 10.5262 6.27614 10.2761C6.52619 10.0261 6.66667 9.68696 6.66667 9.33333C6.66667 8.97971 6.52619 8.64057 6.27614 8.39052C6.02609 8.14048 5.68696 8 5.33333 8C4.97971 8 4.64057 8.14048 4.39052 8.39052C4.14048 8.64057 4 8.97971 4 9.33333C4 9.68696 4.14048 10.0261 4.39052 10.2761C4.64057 10.5262 4.97971 10.6667 5.33333 10.6667ZM9.33333 4.66667C9.68696 4.66667 10.0261 4.80714 10.2761 5.05719C10.5262 5.30724 10.6667 5.64638 10.6667 6V12.6667C10.6667 13.0203 10.5262 13.3594 10.2761 13.6095C10.0261 13.8595 9.68696 14 9.33333 14H1.33333C0.979711 14 0.640573 13.8595 0.390524 13.6095C0.140476 13.3594 0 13.0203 0 12.6667V6C0 5.64638 0.140476 5.30724 0.390524 5.05719C0.640573 4.80714 0.979711 4.66667 1.33333 4.66667H2V3.33333C2 2.44928 2.35119 1.60143 2.97631 0.976311C3.60143 0.351189 4.44928 0 5.33333 0C5.77107 0 6.20453 0.0862192 6.60894 0.253735C7.01336 0.421251 7.38083 0.666782 7.69036 0.976311C7.99988 1.28584 8.24542 1.6533 8.41293 2.05772C8.58045 2.46214 8.66667 2.89559 8.66667 3.33333V4.66667H9.33333ZM5.33333 1.33333C4.8029 1.33333 4.29419 1.54405 3.91912 1.91912C3.54405 2.29419 3.33333 2.8029 3.33333 3.33333V4.66667H7.33333V3.33333C7.33333 2.8029 7.12262 2.29419 6.74755 1.91912C6.37247 1.54405 5.86377 1.33333 5.33333 1.33333Z" fill="currentColor"/>
</svg>
