<svg width="14" height="14" viewBox="0 0 14 14"  xmlns="http://www.w3.org/2000/svg">
<path fill-rule="evenodd" clip-rule="evenodd" d="M9.54547 5.09086C9.54547 5.76596 9.27729 6.41341 8.79992 6.89077C8.32256 7.36814 7.67511 7.63632 7.00001 7.63632C6.32492 7.63632 5.67747 7.36814 5.20011 6.89077C4.72274 6.41341 4.45456 5.76596 4.45456 5.09086C4.45456 4.41577 4.72274 3.76832 5.20011 3.29096C5.67747 2.81359 6.32492 2.54541 7.00001 2.54541C7.67511 2.54541 8.32256 2.81359 8.79992 3.29096C9.27729 3.76832 9.54547 4.41577 9.54547 5.09086ZM8.27274 5.09086C8.27274 5.42841 8.13865 5.75214 7.89997 5.99082C7.66129 6.2295 7.33756 6.36359 7.00001 6.36359C6.66247 6.36359 6.33874 6.2295 6.10006 5.99082C5.86138 5.75214 5.72729 5.42841 5.72729 5.09086C5.72729 4.75332 5.86138 4.42959 6.10006 4.19091C6.33874 3.95223 6.66247 3.81814 7.00001 3.81814C7.33756 3.81814 7.66129 3.95223 7.89997 4.19091C8.13865 4.42959 8.27274 4.75332 8.27274 5.09086Z" fill="currentColor"/>
<path fill-rule="evenodd" clip-rule="evenodd" d="M7 0C3.13409 0 0 3.13409 0 7C0 10.8659 3.13409 14 7 14C10.8659 14 14 10.8659 14 7C14 3.13409 10.8659 0 7 0ZM1.27273 7C1.27273 8.33 1.72645 9.55436 2.48691 10.5267C3.02097 9.82539 3.70994 9.25702 4.5 8.86602C5.29007 8.47501 6.15984 8.27196 7.04136 8.27273C7.91148 8.2719 8.77031 8.4697 9.55241 8.85104C10.3345 9.23239 11.0192 9.78722 11.5545 10.4733C12.1058 9.75011 12.4771 8.90605 12.6375 8.01092C12.7979 7.11579 12.7428 6.19534 12.4769 5.32572C12.2109 4.45609 11.7417 3.6623 11.108 3.01002C10.4744 2.35774 9.69452 1.86573 8.83297 1.57469C7.97142 1.28365 7.05294 1.20195 6.15355 1.33635C5.25415 1.47075 4.39969 1.81739 3.66085 2.34758C2.92202 2.87777 2.32006 3.57628 1.90478 4.38531C1.4895 5.19433 1.27284 6.09062 1.27273 7ZM7 12.7273C5.68524 12.7292 4.41017 12.2769 3.39055 11.4469C3.80096 10.8594 4.34721 10.3797 4.98285 10.0486C5.61848 9.71756 6.32468 9.54494 7.04136 9.54545C7.7491 9.54489 8.44676 9.71318 9.07641 10.0364C9.70605 10.3595 10.2495 10.8283 10.6616 11.4036C9.6341 12.2606 8.33801 12.7291 7 12.7273Z" fill="currentColor"/>
</svg>
