<svg width="53" height="53" viewBox="0 0 53 53" fill="none" xmlns="http://www.w3.org/2000/svg">
<circle cx="26.5" cy="26.5" r="26.5" fill="currentColor"/>
<path d="M22.8646 37.4118C22.2929 37.4118 21.8032 37.2081 21.3957 36.8007C20.9882 36.3933 20.7848 35.9042 20.7855 35.3333C20.7855 34.7618 20.9893 34.2723 21.3968 33.8649C21.8043 33.4575 22.2935 33.2542 22.8646 33.2549C23.4363 33.2549 23.9259 33.4586 24.3334 33.8659C24.7409 34.2733 24.9443 34.7624 24.9436 35.3333C24.9436 35.9049 24.7399 36.3944 24.3324 36.8017C23.9249 37.2091 23.4356 37.4124 22.8646 37.4118ZM33.2598 37.4118C32.6881 37.4118 32.1985 37.2081 31.791 36.8007C31.3835 36.3933 31.1801 35.9042 31.1808 35.3333C31.1808 34.7618 31.3845 34.2723 31.792 33.8649C32.1995 33.4575 32.6888 33.2542 33.2598 33.2549C33.8316 33.2549 34.3212 33.4586 34.7287 33.8659C35.1362 34.2733 35.3396 34.7624 35.3389 35.3333C35.3389 35.9049 35.1351 36.3944 34.7277 36.8017C34.3202 37.2091 33.8309 37.4124 33.2598 37.4118ZM22.8646 32.2157C22.0849 32.2157 21.4959 31.8734 21.0974 31.1889C20.6989 30.5044 20.6816 29.8248 21.0454 29.15L22.4488 26.6039L18.7065 18.7059H17.641C17.3464 18.7059 17.1039 18.6061 16.9133 18.4066C16.7227 18.2071 16.6274 17.9604 16.6274 17.6667C16.6274 17.3722 16.7272 17.1252 16.9268 16.9257C17.1264 16.7262 17.3731 16.6268 17.667 16.6274H19.3562C19.5468 16.6274 19.7287 16.6794 19.9019 16.7833C20.0752 16.8872 20.2051 17.0345 20.2918 17.225L20.9934 18.7059H36.3264C36.7942 18.7059 37.1147 18.8791 37.288 19.2255C37.4613 19.5719 37.4526 19.9356 37.262 20.3167L33.5717 26.9676C33.3811 27.314 33.1299 27.5825 32.818 27.773C32.5062 27.9636 32.151 28.0588 31.7525 28.0588H24.0081L22.8646 30.1372H34.3254C34.6199 30.1372 34.8624 30.237 35.053 30.4365C35.2436 30.6361 35.3389 30.8827 35.3389 31.1765C35.3389 31.4709 35.2391 31.7179 35.0395 31.9174C34.8399 32.1169 34.5932 32.2164 34.2994 32.2157H22.8646Z" fill="white"/>
</svg>
