<svg width="53" height="53" viewBox="0 0 53 53" fill="none" xmlns="http://www.w3.org/2000/svg">
<circle cx="26.5" cy="26.5" r="26.5" fill="currentColor"/>
<path d="M30.6971 17.9504C31.2794 17.368 32.0613 17.0289 32.8844 17.0018C33.7075 16.9747 34.5102 17.2616 35.1295 17.8044L35.2852 17.9504L36.0497 18.7149C36.6318 19.2971 36.9708 20.0789 36.9979 20.9018C37.025 21.7246 36.7382 22.527 36.1957 23.1462L36.0497 23.302L23.9258 35.427C23.7543 35.5984 23.5467 35.7292 23.318 35.8098L23.1429 35.8606L18.3266 36.9722C18.1579 37.0112 17.9823 37.0091 17.8145 36.9662C17.6467 36.9232 17.4917 36.8407 17.3625 36.7254C17.2332 36.6102 17.1335 36.4656 17.0717 36.3038C17.0099 36.142 16.9879 35.9678 17.0074 35.7957L17.029 35.6735L18.1395 30.8562C18.1944 30.6199 18.3016 30.3989 18.4531 30.2095L18.5731 30.0744L30.6971 17.9504ZM29.9326 21.773L20.2114 31.4942L19.5236 34.4765L22.506 33.7877L32.2272 24.0665L29.9326 21.773ZM33.7562 19.4794C33.57 19.2933 33.3223 19.1814 33.0595 19.1649C32.7967 19.1484 32.5369 19.2283 32.3288 19.3897L32.2272 19.4794L31.4616 20.2439L33.7562 22.5375L34.5207 21.773C34.7069 21.5868 34.8187 21.339 34.8352 21.0762C34.8518 20.8134 34.7718 20.5536 34.6104 20.3456L34.5207 20.2439L33.7562 19.4794Z" fill="white"/>
</svg>
