<svg width="12" height="12" viewBox="0 0 12 12" fill="currentColor" xmlns="http://www.w3.org/2000/svg">
<path d="M3.60195 12C3.27195 12 2.98935 11.8824 2.75415 11.6472C2.51895 11.412 2.40155 11.1296 2.40195 10.8C2.40195 10.47 2.51955 10.1874 2.75475 9.9522C2.98995 9.717 3.27235 9.5996 3.60195 9.6C3.93195 9.6 4.21455 9.7176 4.44975 9.9528C4.68495 10.188 4.80235 10.4704 4.80195 10.8C4.80195 11.13 4.68435 11.4126 4.44915 11.6478C4.21395 11.883 3.93155 12.0004 3.60195 12ZM9.60195 12C9.27195 12 8.98935 11.8824 8.75415 11.6472C8.51895 11.412 8.40155 11.1296 8.40195 10.8C8.40195 10.47 8.51955 10.1874 8.75475 9.9522C8.98995 9.717 9.27235 9.5996 9.60195 9.6C9.93195 9.6 10.2146 9.7176 10.4498 9.9528C10.685 10.188 10.8024 10.4704 10.802 10.8C10.802 11.13 10.6844 11.4126 10.4492 11.6478C10.214 11.883 9.93155 12.0004 9.60195 12ZM3.60195 9C3.15195 9 2.81195 8.8024 2.58195 8.4072C2.35195 8.012 2.34195 7.6196 2.55195 7.23L3.36195 5.76L1.20195 1.2H0.586953C0.416953 1.2 0.276953 1.1424 0.166953 1.0272C0.0569531 0.912002 0.00195313 0.769602 0.00195312 0.600002C0.00195312 0.430002 0.0595531 0.287402 0.174753 0.172202C0.289953 0.057002 0.432353 -0.000397924 0.601953 2.07613e-06H1.57695C1.68695 2.07613e-06 1.79195 0.0300021 1.89195 0.0900021C1.99195 0.150002 2.06695 0.235002 2.11695 0.345002L2.52195 1.2H11.372C11.642 1.2 11.827 1.3 11.927 1.5C12.0269 1.7 12.022 1.91 11.912 2.13L9.78195 5.97C9.67195 6.17 9.52695 6.325 9.34695 6.435C9.16695 6.545 8.96195 6.6 8.73195 6.6H4.26195L3.60195 7.8H10.217C10.387 7.8 10.527 7.8576 10.637 7.9728C10.747 8.088 10.802 8.2304 10.802 8.4C10.802 8.57 10.7444 8.7126 10.6292 8.8278C10.514 8.943 10.3716 9.0004 10.202 9H3.60195Z" fill="currentColor"/>
</svg>
