<svg width="800" height="800" viewBox="0 0 800 800"  xmlns="http://www.w3.org/2000/svg">
<path d="M100 191.667C100 141.041 141.041 100 191.667 100H523.817C552.547 100 580.103 111.414 600.42 131.73L668.27 199.581C688.587 219.898 700 247.453 700 276.184V608.333C700 658.96 658.96 700 608.333 700H191.667C141.041 700 100 658.96 100 608.333V191.667ZM191.667 150C168.655 150 150 168.655 150 191.667V608.333C150 631.347 168.655 650 191.667 650H200V475C200 433.58 233.579 400 275 400H525C566.42 400 600 433.58 600 475V650H608.333C631.347 650 650 631.347 650 608.333V276.184C650 260.713 643.853 245.876 632.913 234.937L565.063 167.085C556.393 158.415 545.273 152.756 533.333 150.781V241.667C533.333 283.088 499.753 316.667 458.333 316.667H308.333C266.912 316.667 233.333 283.088 233.333 241.667V150H191.667ZM550 650V475C550 461.193 538.807 450 525 450H275C261.193 450 250 461.193 250 475V650H550ZM283.333 150V241.667C283.333 255.474 294.526 266.667 308.333 266.667H458.333C472.14 266.667 483.333 255.474 483.333 241.667V150H283.333Z" fill="currentColor"/>
</svg>
