<svg width="30" height="30" viewBox="0 0 30 30" fill="none" xmlns="http://www.w3.org/2000/svg">
<path d="M10.7299 5.11202C12.6304 1.70401 13.5799 0 15.0004 0C16.4209 0 17.3704 1.70401 19.2709 5.11202L19.7629 5.99402C20.3029 6.96302 20.5729 7.44752 20.9929 7.76702C21.4129 8.08652 21.9379 8.20502 22.9879 8.44203L23.9419 8.65803C27.6319 9.49353 29.4754 9.91053 29.9149 11.322C30.3529 12.732 29.0959 14.2035 26.5804 17.1451L25.9294 17.9056C25.2154 18.7411 24.8569 19.1596 24.6964 19.6756C24.5359 20.1931 24.5899 20.7511 24.6979 21.8656L24.7969 22.8811C25.1764 26.8066 25.3669 28.7686 24.2179 29.6401C23.0689 30.5131 21.3409 29.7166 17.8879 28.1266L16.9924 27.7156C16.0114 27.2626 15.5209 27.0376 15.0004 27.0376C14.4799 27.0376 13.9894 27.2626 13.0084 27.7156L12.1144 28.1266C8.65988 29.7166 6.93187 30.5116 5.78437 29.6416C4.63387 28.7686 4.82437 26.8066 5.20387 22.8811L5.30287 21.8671C5.41087 20.7511 5.46487 20.1931 5.30287 19.6771C5.14387 19.1596 4.78537 18.7411 4.07137 17.9071L3.42036 17.1451C0.904856 14.205 -0.352149 12.7335 0.0858527 11.322C0.525354 9.91053 2.37036 9.49203 6.06037 8.65803L7.01437 8.44203C8.06288 8.20502 8.58638 8.08652 9.00788 7.76702C9.42788 7.44752 9.69788 6.96302 10.2379 5.99402L10.7299 5.11202Z" fill="currentColor"/>
</svg>
