<svg width="17" height="16" viewBox="0 0 17 16" fill="none" xmlns="http://www.w3.org/2000/svg">
<path d="M13.1666 4C12.9898 4 12.8202 4.07024 12.6952 4.19526C12.5702 4.32029 12.4999 4.48986 12.4999 4.66667V7.33333C12.4999 7.51014 12.4297 7.67971 12.3047 7.80474C12.1796 7.92976 12.0101 8 11.8333 8H5.43993L6.3066 7.14C6.43213 7.01446 6.50266 6.8442 6.50266 6.66667C6.50266 6.48913 6.43213 6.31887 6.3066 6.19333C6.18106 6.0678 6.0108 5.99727 5.83326 5.99727C5.65573 5.99727 5.48547 6.0678 5.35993 6.19333L3.35993 8.19333C3.29924 8.25674 3.25166 8.3315 3.21993 8.41333C3.15325 8.57564 3.15325 8.75769 3.21993 8.92C3.25166 9.00183 3.29924 9.0766 3.35993 9.14L5.35993 11.14C5.42191 11.2025 5.49564 11.2521 5.57688 11.2859C5.65812 11.3198 5.74526 11.3372 5.83326 11.3372C5.92127 11.3372 6.00841 11.3198 6.08965 11.2859C6.17089 11.2521 6.24462 11.2025 6.3066 11.14C6.36908 11.078 6.41868 11.0043 6.45253 10.9231C6.48637 10.8418 6.5038 10.7547 6.5038 10.6667C6.5038 10.5787 6.48637 10.4915 6.45253 10.4103C6.41868 10.329 6.36908 10.2553 6.3066 10.1933L5.43993 9.33333H11.8333C12.3637 9.33333 12.8724 9.12262 13.2475 8.74755C13.6226 8.37247 13.8333 7.86377 13.8333 7.33333V4.66667C13.8333 4.48986 13.763 4.32029 13.638 4.19526C13.513 4.07024 13.3434 4 13.1666 4Z" fill="white"/>
</svg>
