<svg width="27" height="27" viewBox="0 0 27 27"  xmlns="http://www.w3.org/2000/svg">
<path d="M8 3C7.45 3 6.97917 3.19583 6.5875 3.5875C6.19583 3.97916 6 4.45 6 5V16C6 16.55 6.19583 17.0208 6.5875 17.4125C6.97917 17.8042 7.45 18 8 18H11V16H8V5H20V16H17V18H20C20.55 18 21.0208 17.8042 21.4125 17.4125C21.8042 17.0208 22 16.55 22 16V5C22 4.45 21.8042 3.97916 21.4125 3.5875C21.0208 3.19583 20.55 3 20 3H8ZM13 10V21.175L11.4 19.575L10 21L14 25L18 21L16.6 19.575L15 21.175V10H13Z" fill="currentColor"/>
</svg>
