<svg width="11" height="12" viewBox="0 0 11 12" fill="none" xmlns="http://www.w3.org/2000/svg">
<g clip-path="url(#clip0_21_368)">
<path fill-rule="evenodd" clip-rule="evenodd" d="M4.92348 7.85169C4.68403 7.85169 4.56398 7.66809 4.437 7.54115L2.83104 5.93565C2.70954 5.8142 2.50424 5.65392 2.49093 5.45656C2.47623 5.23871 2.67943 5.09109 2.79589 4.97472C3.20206 4.56869 3.27759 4.48361 3.73371 4.93958L4.9001 6.09389C5.01542 6.06314 6.2192 4.81035 6.30097 4.72867L7.33256 3.69741C7.57415 3.45589 7.55924 3.39858 7.85423 3.39858C8.01357 3.39858 8.17614 3.61488 8.27037 3.70912C8.45618 3.89487 8.58101 3.9457 8.58101 4.19545C8.58101 4.42156 8.3273 4.60143 8.20003 4.72867L5.45698 7.47083C5.33279 7.59497 5.14309 7.85169 4.92358 7.85169H4.92348ZM0 3.93763C0 5.03298 0.0844536 6.13237 0.309497 7.02667C0.469979 7.66445 0.649605 8.26964 1.01275 8.83152C1.26182 9.21697 1.37075 9.32841 1.63772 9.65988L2.15127 10.2012C2.8442 10.8111 3.27719 11.1303 4.12636 11.5549C4.33799 11.6607 5.10037 12.0002 5.36894 12.0002C5.62708 12.0002 6.38467 11.6684 6.59591 11.5627C6.78795 11.4667 6.95436 11.3848 7.13179 11.2781L7.88225 10.7862C8.25028 10.537 8.81408 9.99858 9.08963 9.67289C9.32544 9.39419 9.51354 9.15352 9.71575 8.84567C9.88376 8.5899 10.0148 8.30208 10.1285 8.01611C10.166 7.92182 10.2134 7.8017 10.243 7.70866C10.8508 5.79959 10.8035 3.75492 10.5978 1.7574C10.5565 1.3566 10.2978 1.35072 9.95401 1.25253L7.68009 0.619487C7.43511 0.550411 5.52937 0.000244141 5.36894 0.000244141C5.19295 0.000244141 0.498296 1.31972 0.371067 1.37897C0.0927793 1.5085 0.129223 1.89565 0.0900872 2.26994L0.0269215 3.07398C0.015754 3.17361 0.0290153 3.27528 0.0236311 3.37535L9.97091e-05 3.93773L0 3.93763Z" fill="#4CAF50"/>
</g>
<defs>
<clipPath id="clip0_21_368">
<rect width="10.7368" height="12" fill="white"/>
</clipPath>
</defs>
</svg>
