<svg width="27" height="27" viewBox="0 0 27 27"  xmlns="http://www.w3.org/2000/svg">
<path d="M20 25C20.55 25 21.0208 24.8042 21.4125 24.4125C21.8042 24.0208 22 23.55 22 23V12C22 11.45 21.8042 10.9792 21.4125 10.5875C21.0208 10.1958 20.55 10 20 10H17V12H20V23H8V12H11V10H8C7.45 10 6.97916 10.1958 6.5875 10.5875C6.19583 10.9792 6 11.45 6 12V23C6 23.55 6.19583 24.0208 6.5875 24.4125C6.97916 24.8042 7.45 25 8 25H20ZM15 18V6.825L16.6 8.425L18 7L14 3L10 7L11.4 8.425L13 6.825V18H15Z" fill="currentColor"/>
</svg>
