<svg width="28" height="28" viewBox="0 0 28 28" fill="none" xmlns="http://www.w3.org/2000/svg">
<path d="M16.5403 4.04289L18.475 8.0197C18.74 8.56554 19.4485 9.10801 20.0493 9.20781L23.623 9.84853C25.9114 10.2538 26.4197 11.9196 24.7625 13.5496L21.9398 16.3103C21.4685 16.773 21.1885 17.6883 21.3343 18.3341L22.091 21.7981C22.6857 24.5329 21.2275 25.577 18.8372 24.1238L15.4982 22.0934C14.8901 21.7224 13.8935 21.7195 13.2857 22.0685L9.9038 24.0142C7.48293 25.4048 6.04514 24.3305 6.7028 21.6123L7.54282 18.1727C7.69968 17.5298 7.45268 16.6081 6.98994 16.1368L4.21356 13.3091C2.59391 11.6465 3.13965 9.9936 5.4327 9.63704L9.01302 9.08288C9.61752 8.98438 10.3389 8.47279 10.6113 7.92809L12.6371 3.98904C13.7428 1.8675 15.4961 1.89071 16.5403 4.04289Z" fill="#DDDDDD"/>
</svg>
