<svg width="16" height="16" viewBox="0 0 16 16" fill="currentColor" xmlns="http://www.w3.org/2000/svg">
<path d="M15.5767 7.20079V14.7019C15.5767 14.8724 15.5431 15.0412 15.4779 15.1987C15.4127 15.3562 15.317 15.4993 15.1965 15.6198C15.076 15.7403 14.9329 15.836 14.7754 15.9012C14.6179 15.9664 14.4491 16 14.2786 16H14.2785L10.3839 15.9994C10.2118 15.9994 10.0467 15.931 9.92502 15.8093C9.80332 15.6876 9.73496 15.5225 9.73496 15.3504V12.1052C9.73496 11.0299 8.86322 10.1581 7.78787 10.1581C6.71253 10.1581 5.84079 11.0299 5.84079 12.1052V15.3504C5.84079 15.5225 5.77242 15.6876 5.65072 15.8093C5.52902 15.931 5.36396 15.9994 5.19184 15.9994L1.29822 16C1.12774 16 0.958931 15.9665 0.801424 15.9012C0.643918 15.836 0.500801 15.7404 0.380248 15.6199C0.259695 15.4993 0.164066 15.3562 0.0988229 15.1987C0.0335795 15.0412 -6.40696e-07 14.8724 0 14.7019V7.20075C0.000157774 7.01992 0.0380257 6.8411 0.111186 6.67572C0.184346 6.51034 0.29119 6.36204 0.424895 6.24028L6.91463 0.339483C7.15301 0.121142 7.46454 2.1928e-05 7.78781 2.97717e-09C8.11107 -2.19221e-05 8.42262 0.121055 8.66103 0.339365L15.1519 6.24032C15.2855 6.3621 15.3924 6.51041 15.4655 6.67578C15.5387 6.84116 15.5765 7.01996 15.5767 7.20079Z" />
</svg>
