<svg width="22" height="16" viewBox="0 0 22 16" fill="currentColor" xmlns="http://www.w3.org/2000/svg">
<path fill-rule="evenodd" clip-rule="evenodd" d="M15.6827 0C16.4457 0 17.0767 0.434 17.5387 0.89C18.0197 1.363 18.4607 1.999 18.8527 2.7C19.6397 4.106 20.3247 5.943 20.7777 7.758C21.2277 9.559 21.4767 11.44 21.3177 12.919C21.1577 14.404 20.3927 16 18.6827 16C17.2067 16 16.0307 15.24 15.0687 14.469L14.7177 14.18L14.2257 13.765L13.7817 13.397C12.7627 12.572 11.8577 12 10.6827 12C9.50774 12 8.60274 12.572 7.58374 13.397L7.13974 13.765L6.64774 14.18L6.29774 14.469C5.33374 15.24 4.15774 16 2.68274 16C0.971741 16 0.206741 14.404 0.0477411 12.919C-0.110259 11.439 0.137741 9.559 0.587741 7.757C1.04074 5.943 1.72574 4.107 2.51274 2.699C2.90474 1.999 3.34574 1.363 3.82674 0.889C4.28874 0.434 4.91974 0 5.68274 0C6.19774 0 6.70074 0.123 7.19574 0.27L7.78774 0.451C7.88674 0.481 7.98474 0.511 8.08274 0.538C8.94774 0.786 9.83274 1 10.6827 1C11.5327 1 12.4177 0.786 13.2827 0.538L14.1677 0.271C14.6657 0.124 15.1727 0 15.6827 0ZM15.6827 2C15.2997 2 14.8997 2.116 14.5117 2.243L14.0537 2.394C13.9804 2.41784 13.9068 2.44051 13.8327 2.462C12.9477 2.714 11.8327 3 10.6827 3C9.53274 3 8.41774 2.714 7.53274 2.462L7.31274 2.394L6.85374 2.243C6.46574 2.115 6.06574 2 5.68274 2C5.26474 2.078 4.88974 2.585 4.60674 3.055L4.44874 3.33L4.25874 3.676C3.57674 4.894 2.94874 6.556 2.52874 8.242C2.13374 9.819 1.94174 11.329 2.01474 12.453L2.04074 12.746L2.06074 12.922L2.09074 13.13C2.15974 13.531 2.30874 14 2.68274 14C3.49474 14 4.17274 13.596 5.01574 12.926L5.41874 12.598L6.17874 11.962L6.52274 11.682C7.58674 10.839 8.91774 10 10.6827 10C12.4477 10 13.7787 10.84 14.8427 11.682L15.1877 11.962L15.9477 12.598L16.3497 12.926C17.1927 13.596 17.8697 14 18.6827 14C19.0227 14 19.1767 13.613 19.2537 13.241L19.2917 13.023L19.3287 12.706C19.4517 11.56 19.2617 9.941 18.8377 8.243C18.4517 6.697 17.8917 5.171 17.2757 3.989L16.9167 3.329L16.7587 3.056C16.4757 2.585 16.1007 2.078 15.6827 2ZM7.18274 4C7.84578 4 8.48167 4.26339 8.95051 4.73223C9.41935 5.20107 9.68274 5.83696 9.68274 6.5C9.68274 7.16304 9.41935 7.79893 8.95051 8.26777C8.48167 8.73661 7.84578 9 7.18274 9C6.5197 9 5.88382 8.73661 5.41497 8.26777C4.94613 7.79893 4.68274 7.16304 4.68274 6.5C4.68274 5.83696 4.94613 5.20107 5.41497 4.73223C5.88382 4.26339 6.5197 4 7.18274 4ZM14.1827 4C14.4277 4.00003 14.6641 4.08996 14.8471 4.25272C15.0301 4.41547 15.1471 4.63975 15.1757 4.883L15.1827 5V5.5H15.6827C15.9376 5.50028 16.1828 5.59788 16.3681 5.77285C16.5534 5.94782 16.665 6.18695 16.6799 6.44139C16.6948 6.69584 16.6121 6.94638 16.4485 7.14183C16.2849 7.33729 16.0528 7.4629 15.7997 7.493L15.6827 7.5H15.1827V8C15.1825 8.25488 15.0849 8.50003 14.9099 8.68537C14.7349 8.8707 14.4958 8.98223 14.2413 8.99717C13.9869 9.01211 13.7364 8.92933 13.5409 8.76574C13.3455 8.60215 13.2198 8.3701 13.1897 8.117L13.1827 8V7.5H12.6827C12.4279 7.49972 12.1827 7.40212 11.9974 7.22715C11.812 7.05218 11.7005 6.81305 11.6856 6.55861C11.6706 6.30416 11.7534 6.05362 11.917 5.85817C12.0806 5.66271 12.3126 5.5371 12.5657 5.507L12.6827 5.5H13.1827V5C13.1827 4.73478 13.2881 4.48043 13.4756 4.29289C13.6632 4.10536 13.9175 4 14.1827 4ZM7.18274 6C7.05013 6 6.92296 6.05268 6.82919 6.14645C6.73542 6.24021 6.68274 6.36739 6.68274 6.5C6.68274 6.63261 6.73542 6.75979 6.82919 6.85355C6.92296 6.94732 7.05013 7 7.18274 7C7.31535 7 7.44253 6.94732 7.53629 6.85355C7.63006 6.75979 7.68274 6.63261 7.68274 6.5C7.68274 6.36739 7.63006 6.24021 7.53629 6.14645C7.44253 6.05268 7.31535 6 7.18274 6Z" />
</svg>
