<svg width="13" height="16" viewBox="0 0 13 16" fill="currentColor" xmlns="http://www.w3.org/2000/svg">
<path fill-rule="evenodd" clip-rule="evenodd" d="M10.3999 0C11.0365 0 11.6469 0.252855 12.097 0.70294C12.5471 1.15302 12.7999 1.76347 12.7999 2.39999V15.1999C12.7998 15.3506 12.7572 15.4982 12.6769 15.6257C12.5966 15.7532 12.482 15.8554 12.3461 15.9206C12.2103 15.9858 12.0588 16.0113 11.9091 15.9942C11.7594 15.9771 11.6176 15.9181 11.4999 15.8239C10.623 15.1224 9.3769 15.1224 8.49995 15.8239C8.34628 15.947 8.1526 16.0091 7.95599 15.9984C7.75939 15.9876 7.57366 15.9047 7.43436 15.7655C6.86308 15.1942 5.93685 15.1942 5.36557 15.7655C5.22637 15.9048 5.0407 15.9878 4.84409 15.9988C4.64748 16.0097 4.45374 15.9477 4.29998 15.8247C3.42332 15.1229 2.17688 15.1224 1.29999 15.8239C1.18237 15.9181 1.04054 15.9771 0.890843 15.9942C0.741141 16.0113 0.589651 15.9858 0.453812 15.9206C0.317974 15.8554 0.203311 15.7532 0.123025 15.6257C0.0427391 15.4982 9.41115e-05 15.3506 0 15.1999V2.39999C0 1.76347 0.252855 1.15302 0.70294 0.70294C1.15302 0.252855 1.76347 0 2.39999 0H10.3999ZM6.39996 7.99995H3.99998C3.78781 7.99995 3.58432 8.08424 3.4343 8.23427C3.28427 8.3843 3.19998 8.58778 3.19998 8.79995C3.19998 9.01212 3.28427 9.2156 3.4343 9.36563C3.58432 9.51566 3.78781 9.59995 3.99998 9.59995H6.39996C6.61214 9.59995 6.81562 9.51566 6.96565 9.36563C7.11567 9.2156 7.19996 9.01212 7.19996 8.79995C7.19996 8.58778 7.11567 8.3843 6.96565 8.23427C6.81562 8.08424 6.61214 7.99995 6.39996 7.99995ZM8.79995 4.79997H3.99998C3.79607 4.8002 3.59995 4.87828 3.45169 5.01825C3.30342 5.15822 3.21419 5.34953 3.20224 5.55308C3.19029 5.75664 3.25652 5.95707 3.38739 6.11343C3.51826 6.26979 3.7039 6.37028 3.90638 6.39436L3.99998 6.39996H8.79995C9.00385 6.39974 9.19997 6.32166 9.34824 6.18169C9.49651 6.04171 9.58573 5.8504 9.59768 5.64685C9.60963 5.4433 9.54341 5.24287 9.41253 5.0865C9.28166 4.93014 9.09602 4.82966 8.89355 4.80557L8.79995 4.79997Z"  />
</svg>
