<svg width="24" height="24" viewBox="0 0 24 24" fill="none" xmlns="http://www.w3.org/2000/svg">
<g clip-path="url(#clip0_91_1563)">
<path d="M18.689 15.6586L19.9475 16.7708L16.75 19.9391L15.7109 18.6L18.689 15.6586Z" fill="#FFB74D"/>
<path d="M23.4598 20.8756C23.4598 21.5415 23.189 22.1708 22.6915 22.661C21.6085 23.7293 19.8524 23.6415 18.8646 22.4854L16.75 19.8951L19.9476 16.7708L22.5159 18.9586C23.1451 19.4488 23.4598 20.1659 23.4598 20.8756Z" fill="white"/>
<path d="M16.6541 13.9609L18.6371 15.6585L15.6663 18.6L13.998 16.5512C14.5395 16.2365 15.0371 15.8341 15.4834 15.3951C15.9371 14.9487 16.3395 14.4585 16.6541 13.9683V13.9609Z" fill="white"/>
<path d="M15.4834 3.12435C12.0591 -0.263455 6.52003 -0.263455 3.09564 3.12435C-0.328754 6.51216 -0.328754 12 3.09564 15.3878C6.06637 18.3292 10.6176 18.6878 13.9981 16.5439C14.5395 16.2292 15.0371 15.8268 15.4834 15.3878C15.9371 14.9414 16.3395 14.4512 16.6542 13.9609C18.8639 10.617 18.4542 6.06581 15.4834 3.12435Z" fill="white"/>
<path d="M13.5956 8.25366C13.7273 8.42927 13.6834 8.7 13.5517 8.8317L13.237 9.19024C13.1053 9.32195 12.8346 9.36585 12.6517 9.23414L12.2492 8.96341C12.1614 8.91951 12.0663 8.7878 12.0663 8.69268L11.8395 7.8878C11.7956 7.75609 11.8395 7.66829 11.8834 7.52927L12.1541 7.03902C12.337 6.72439 12.8273 6.76829 12.9663 7.08292L13.1931 7.61707C13.1931 7.66097 13.237 7.66097 13.237 7.70488L13.5956 8.23902V8.25366Z" fill="#FFB74D"/>
<path d="M13.9546 10.3463L15.4838 9.45365C15.396 12.7536 12.6448 15.3878 9.30824 15.3878C8.26921 15.3878 7.28141 15.1171 6.42531 14.6707V14.6268L7.1936 12.5268C7.1936 12.4829 7.2375 12.439 7.28141 12.3951L7.63994 12.0805C7.82287 11.9049 7.77165 11.6341 7.55214 11.5463L6.69604 11.2317C6.65214 11.2317 6.60824 11.1878 6.55702 11.1439L5.88385 10.3829C5.83994 10.339 5.79604 10.2951 5.75214 10.2951L5.21068 10.1195C4.98385 10.0317 4.80824 9.89999 4.66921 9.71706C4.5375 9.54145 4.44238 9.31463 4.44238 9.09511C4.44238 8.82438 4.53019 8.56097 4.71311 8.37804L6.02287 7.03902C6.06677 6.99511 6.15458 6.95121 6.2497 6.95121L6.60824 6.90731C6.79116 6.90731 6.92287 6.7317 6.92287 6.59267V6.27804C6.92287 6.19024 6.96677 6.10243 7.01068 6.05853L7.1936 5.88292C7.2375 5.83902 7.28141 5.75121 7.28141 5.66341V5.39267C7.28141 5.26097 7.36921 5.12194 7.50824 5.07804L7.69116 5.03414C7.73507 5.03414 7.73507 5.03414 7.77897 5.03414C7.91068 5.03414 8.0058 5.12194 8.0936 5.20975C8.18141 5.38536 8.40824 5.42926 8.59116 5.34146L9.67409 4.53658C9.7619 4.44877 9.8058 4.31706 9.8058 4.17804L9.57897 3.24146C10.5229 3.28536 11.4229 3.51219 12.2351 3.90731V3.99511L11.3351 4.66097C11.2473 4.70487 11.2034 4.79267 11.2034 4.83658L11.1156 5.32682C11.1156 5.45853 10.9838 5.54633 10.8448 5.54633L10.3034 5.59024C10.2156 5.59024 10.1204 5.63414 10.0765 5.72194L9.7619 6.29999C9.67409 6.4756 9.7619 6.65853 9.94482 6.70243C10.0765 6.74633 10.1717 6.83414 10.1717 6.97316C10.1717 7.01706 10.1717 7.06097 10.1277 7.10487L9.85702 7.50731C9.49848 8.04146 9.49848 8.71463 9.90092 9.24877L10.5302 10.0976C10.5741 10.1415 10.5741 10.1415 10.618 10.1854L11.8326 10.6756C11.9204 10.7195 12.0156 10.8512 12.0156 10.9463L11.8838 12.1976C11.8838 12.3732 11.9277 12.5561 12.0668 12.6439C12.1546 12.7317 12.2936 12.7756 12.4253 12.7756C12.6521 12.7756 12.9229 12.6 12.9668 12.3293L13.9546 10.3244V10.3463Z" fill="#FFB74D"/>
<path d="M13.5524 8.83175C13.6841 8.70005 13.7354 8.42932 13.5963 8.25371L13.2378 7.76346C13.2378 7.71956 13.1939 7.71956 13.1939 7.67566L12.9671 7.14151C12.8354 6.78297 12.3378 6.73907 12.1549 7.09761L11.8841 7.58785C11.8402 7.67566 11.8402 7.80736 11.8402 7.90249L12.0232 8.70736C12.0671 8.79517 12.111 8.92688 12.2061 8.9781L12.6085 9.24883C12.7915 9.38054 13.0622 9.33663 13.1939 9.20493L13.5524 8.84639V8.83175ZM15.4915 9.2781C15.4915 9.322 15.4915 9.4098 15.4915 9.45371L13.9622 10.3464L12.8354 12.2635C12.7915 12.5342 12.5646 12.7098 12.2939 12.7098C12.1622 12.7098 12.0232 12.6659 11.9354 12.5781C11.8037 12.4464 11.7524 12.3074 11.7524 12.1318L11.8841 10.8805C11.8841 10.7488 11.8402 10.661 11.7012 10.6098L10.5305 10.0757C10.4866 10.0757 10.4427 10.0318 10.4427 9.98785L9.81341 9.13907C9.41097 8.64883 9.41098 7.93175 9.76951 7.39761L10.0402 6.99517C10.0841 6.95127 10.0841 6.90736 10.0841 6.86346C10.0841 6.73175 9.99634 6.64395 9.85732 6.59273C9.67439 6.54883 9.58658 6.37322 9.67439 6.19029L10.0329 5.61224C10.0768 5.52444 10.1646 5.48053 10.2598 5.48053L10.8012 5.43663C10.9329 5.43663 11.028 5.34883 11.072 5.21712L11.1598 4.72688C11.1598 4.63907 11.2037 4.59517 11.2988 4.55127L12.1988 3.88541V3.79761C14.1378 4.822 15.4841 6.8781 15.4841 9.28541L15.4915 9.2781Z" fill="white"/>
<path d="M3.0957 9.27805C3.0957 5.89024 5.89083 3.12439 9.31522 3.12439C9.35912 3.12439 9.44692 3.12439 9.49814 3.12439L9.72497 4.06098C9.76887 4.19268 9.72497 4.33171 9.59326 4.41951L8.51034 5.22439C8.32741 5.3561 8.1079 5.31219 8.01278 5.09268C7.96887 4.96097 7.82985 4.91707 7.69814 4.91707C7.65424 4.91707 7.65424 4.91707 7.61034 4.91707L7.42741 4.96098C7.2957 5.00488 7.20058 5.13658 7.20058 5.27561V5.54634C7.20058 5.63415 7.15668 5.72195 7.11278 5.76585L6.92985 5.94146C6.88595 5.98536 6.84205 6.07317 6.84205 6.16097V6.47561C6.84205 6.65122 6.71034 6.79024 6.52741 6.79024L6.16887 6.83415C6.08107 6.83415 6.03717 6.87805 5.94204 6.92195L4.63229 8.26097C4.44936 8.43658 4.36156 8.70732 4.36156 8.97805C4.36156 9.19756 4.44936 9.42439 4.58839 9.6C4.72009 9.77561 4.90302 9.91463 5.12985 10.0024L5.67131 10.178C5.71522 10.178 5.75912 10.222 5.80302 10.2659L6.47619 11.0268C6.52009 11.0707 6.564 11.1146 6.6079 11.1146L7.464 11.4293C7.69083 11.5171 7.77863 11.8317 7.5518 11.9634L7.19326 12.278C7.14936 12.3219 7.10546 12.3659 7.10546 12.4098L6.43229 14.6854V14.7293C4.44936 13.661 3.0957 11.6049 3.0957 9.28537V9.27805Z" fill="white"/>
<path d="M6.43259 15.2122C6.38869 15.2122 6.30089 15.2122 6.24967 15.1683C5.97893 15.0805 5.79601 14.722 5.93503 14.4513L6.70333 12.3513C6.74723 12.2196 6.83503 12.0805 6.93015 11.9927L7.01796 11.9049L6.5204 11.7293C6.38869 11.6854 6.24967 11.5976 6.16186 11.5098L5.53259 10.7927L5.03503 10.661C4.7204 10.5732 4.40576 10.3464 4.22284 10.083C3.99601 9.81224 3.9082 9.46102 3.9082 9.14638C3.9082 8.74394 4.09113 8.3415 4.36186 8.03419L5.67162 6.69516C5.80333 6.56345 6.03015 6.42443 6.21308 6.42443H6.34479V6.33663C6.34479 6.11711 6.43259 5.89028 6.57162 5.71467L6.65942 5.62687V5.45126C6.61552 5.04882 6.88625 4.69028 7.28869 4.55858L7.47162 4.51467C7.78625 4.42687 8.14479 4.51467 8.37162 4.73419L9.13991 4.15614L8.95698 3.35126C8.86918 3.03663 9.04479 2.77321 9.35942 2.68541C9.67406 2.5976 9.94479 2.77321 10.0326 3.08784L10.2594 4.02443C10.3472 4.38297 10.2155 4.7415 9.94479 4.96102L8.86186 5.76589C8.63503 5.9415 8.3643 5.98541 8.09357 5.9415C7.96186 5.8976 7.86674 5.8537 7.77893 5.8098C7.77893 6.02931 7.69113 6.21224 7.55211 6.34394L7.4643 6.43175V6.60736C7.4643 7.0537 7.10576 7.45614 6.65211 7.50004L6.38137 7.54394L5.12284 8.83906C5.03503 8.92687 4.99113 9.05858 4.99113 9.1976C4.99113 9.28541 5.03503 9.41711 5.07893 9.46833C5.12284 9.55614 5.21064 9.60004 5.34967 9.64394L5.89113 9.81955C6.02284 9.86346 6.16186 9.95126 6.29357 10.0903L6.92284 10.8074L7.73503 11.0781C8.04967 11.1659 8.23259 11.4366 8.3204 11.7439C8.3643 12.0586 8.2765 12.3659 8.04967 12.5488L7.73503 12.7683L6.96674 14.8171C6.87894 15.0878 6.65211 15.2196 6.42528 15.2196L6.43259 15.2122Z" fill="#FF7804"/>
<path d="M12.3298 13.2512C12.0591 13.2512 11.7883 13.1634 11.6054 12.9804C11.3347 12.7609 11.203 12.4024 11.2469 12.0439L11.3347 11.0195L10.3469 10.5731C10.2152 10.5292 10.0761 10.4414 10.0322 10.3024L9.40297 9.45361C8.86151 8.73654 8.86151 7.79995 9.35907 7.0902L9.44687 6.95849C9.35907 6.87068 9.26395 6.78288 9.22004 6.68776C9.13224 6.46825 9.13224 6.15361 9.26395 5.92678L9.57858 5.34873C9.71029 5.078 9.98102 4.94629 10.2518 4.90239H10.5664L10.6103 4.63166C10.6542 4.41215 10.7932 4.18532 10.9688 4.05361L11.8249 3.43166C12.0957 3.25605 12.4103 3.29995 12.5932 3.56337C12.7761 3.8341 12.7322 4.14142 12.4615 4.32434L11.6493 4.90239L11.6054 5.26093C11.5615 5.66337 11.2469 5.92678 10.8371 5.978L10.4347 6.0219L10.3469 6.19751C10.5298 6.32922 10.6615 6.59995 10.6615 6.86337C10.6615 7.03898 10.6176 7.178 10.5298 7.35361L10.2591 7.75605C10.0322 8.07068 10.0322 8.51703 10.303 8.82434L10.8883 9.58532L12.0152 10.0756C12.3737 10.2073 12.5566 10.5658 12.5127 10.9243L12.381 11.9926L13.5078 10.0756C13.5517 9.98776 13.6396 9.89995 13.7347 9.85605L15.2639 8.96337C15.2639 8.96337 15.2639 8.96337 15.3078 8.96337C15.5786 8.83166 15.9371 8.91947 16.0761 9.2341C16.2078 9.50483 16.12 9.81215 15.8493 9.99507L14.4518 10.8L13.4639 12.5414C13.2371 12.9439 12.8347 13.2585 12.3371 13.2585L12.3298 13.2512Z" fill="#FF7804"/>
<path d="M12.6013 8.51711L12.9159 8.69272L13.1427 8.47321L12.8281 8.02686C12.7842 7.98296 12.7403 7.89516 12.7403 7.85125L12.6013 7.49272L12.4184 7.76345L12.6013 8.52442V8.51711ZM12.9159 9.85613C12.6891 9.85613 12.5135 9.81223 12.3306 9.68052L11.9281 9.40979C11.7013 9.27808 11.5696 9.05125 11.5257 8.83174L11.3427 8.02686C11.2988 7.75613 11.2988 7.49272 11.4745 7.26589L11.7452 6.77564C11.9281 6.46101 12.2428 6.2854 12.6452 6.2854C13.0476 6.2854 13.4574 6.55613 13.5891 6.90735L13.8159 7.4415L14.1306 7.93174C14.4013 8.33418 14.3574 8.86833 13.9988 9.22686L13.6403 9.5854C13.4135 9.76101 13.1867 9.85613 12.9159 9.85613Z" fill="#FF7804"/>
<path d="M9.31566 3.7024C6.20591 3.7024 3.68152 6.19752 3.68152 9.27801C3.68152 11.3268 4.85225 13.2512 6.70347 14.2317C7.51566 14.6341 8.41566 14.8536 9.31566 14.8536C12.3815 14.8536 14.8547 12.4902 14.9498 9.45362C14.9498 9.40972 14.9498 9.32191 14.9498 9.27801C14.9498 7.17801 13.7791 5.26093 11.884 4.32435C11.1157 3.96581 10.3035 3.7463 9.49859 3.7024C9.41079 3.7024 9.35957 3.7024 9.31566 3.7024ZM9.31566 15.9658C8.23274 15.9658 7.10591 15.6951 6.16201 15.2048C3.95225 14.0487 2.55469 11.7731 2.55469 9.27069C2.55469 5.56825 5.57664 2.58289 9.31566 2.58289C9.35957 2.58289 9.44737 2.58289 9.49859 2.58289C10.4864 2.62679 11.4815 2.85362 12.3815 3.29996C14.6352 4.45606 16.0766 6.73167 16.0766 9.27801C16.0766 9.36581 16.0766 9.40972 16.0766 9.49752C16.0327 11.239 15.3083 12.8853 14.0498 14.0926C12.7401 15.3 11.0791 15.9658 9.32298 15.9658H9.31566Z" fill="#FF7804"/>
<path d="M20.8473 24C20.8034 24 20.7595 24 20.6644 24C19.7644 23.956 18.9522 23.5536 18.4107 22.8439L13.5888 16.9097C13.4058 16.6902 13.4058 16.3317 13.6766 16.1048C13.9034 15.9292 14.2619 15.9292 14.4888 16.1926L19.3107 22.1268C19.6692 22.5731 20.2107 22.8439 20.7522 22.8439C21.3375 22.8878 21.879 22.6682 22.2814 22.2658C22.64 21.9073 22.8668 21.3731 22.8668 20.839C22.8668 20.2609 22.5961 19.7268 22.1424 19.3243L16.2888 14.3268C16.0619 14.1512 16.018 13.7926 16.2449 13.5219C16.4278 13.3024 16.7863 13.2512 17.0571 13.478L22.9107 18.4756C23.5839 19.0536 23.9936 19.9024 23.9936 20.839C23.9936 21.6878 23.679 22.4414 23.0936 23.0268C22.5083 23.6926 21.6961 24.0073 20.84 24.0073L20.8473 24Z" fill="#FF7804"/>
<path d="M9.31549 1.15609C7.10573 1.15609 5.0789 2.00487 3.50573 3.51951C0.30817 6.6878 0.30817 11.8171 3.50573 14.9854C5.035 16.5 7.11305 17.3488 9.27159 17.3488C10.8521 17.3488 12.3813 16.9024 13.6838 16.0537C14.1813 15.739 14.6277 15.3878 15.0813 14.9415C15.4838 14.539 15.8496 14.0927 16.1643 13.6024C18.235 10.4341 17.7887 6.15365 15.0813 3.4756C13.5521 2.00487 11.474 1.15609 9.31549 1.15609ZM9.31549 18.461C6.835 18.461 4.49354 17.4805 2.73744 15.739C-0.913782 12.1244 -0.913782 6.28536 2.73744 2.71463C4.49354 0.973164 6.835 -0.00732422 9.31549 -0.00732422C11.796 -0.00732422 14.1374 0.973164 15.8935 2.71463C17.4228 4.22926 18.374 6.19755 18.5935 8.29024C18.8204 10.3902 18.2789 12.4829 17.1521 14.2244C16.7935 14.8024 16.3399 15.3366 15.8935 15.7829C15.396 16.2732 14.9057 16.6756 14.3204 17.0341C12.835 17.9707 11.0789 18.461 9.3228 18.461H9.31549Z" fill="#FF7804"/>
<path d="M14.723 20.1586C14.5912 20.1586 14.4522 20.1147 14.3205 19.983C14.0937 19.7635 14.0937 19.4049 14.3205 19.1781L19.0986 14.4513C19.3254 14.2317 19.6839 14.2317 19.9108 14.4513C20.1376 14.6708 20.1376 15.0293 19.9108 15.2561L15.1327 19.983C14.9937 20.0708 14.862 20.1586 14.7303 20.1586H14.723Z" fill="#FF7804"/>
<path d="M15.8938 21.3219C15.7621 21.3219 15.6231 21.278 15.4914 21.1463C15.2646 20.9268 15.2646 20.5682 15.4914 20.3414L20.2695 15.6146C20.4963 15.3951 20.8548 15.3951 21.0817 15.6146C21.3085 15.8341 21.3085 16.1926 21.0817 16.4195L16.3036 21.1463C16.2158 21.278 16.0768 21.3219 15.9012 21.3219H15.8938Z" fill="#FF7804"/>
</g>
<defs>
<clipPath id="clip0_91_1563">
<rect width="24.0018" height="24" fill="white"/>
</clipPath>
</defs>
</svg>
