<svg width="16" height="24" viewBox="0 0 16 24" fill="none" xmlns="http://www.w3.org/2000/svg">
<g clip-path="url(#clip0_91_1503)">
<path d="M13.8648 11.4019V10.4413C13.7832 10.4413 13.7017 10.4775 13.6201 10.4775C13.0582 10.4775 12.6142 10.0335 12.6142 9.48071C12.6142 10.0426 12.1702 10.4775 11.6083 10.4775C11.0465 10.4775 10.6024 10.0335 10.6024 9.48071C10.6024 10.0426 10.1584 10.4775 9.59652 10.4775C9.03467 10.4775 8.59062 10.0335 8.59062 9.48071C8.59062 10.0426 8.14658 10.4775 7.58473 10.4775C7.02288 10.4775 6.57884 10.0335 6.57884 9.48071C6.57884 10.0426 6.13479 10.4775 5.57294 10.4775C5.01109 10.4775 4.56705 10.0335 4.56705 9.48071C4.56705 10.0426 4.123 10.4775 3.56115 10.4775C2.9993 10.4775 2.55526 10.0335 2.55526 9.48071C2.55526 10.0426 2.11122 10.4775 1.54936 10.4775C1.46781 10.4775 1.38625 10.4775 1.30469 10.4413V21.6783C1.30469 22.6751 2.11122 23.4817 3.12617 23.4817H12.1339C13.1398 23.4817 13.9554 22.6842 13.9554 21.6783L13.9101 11.4019H13.8648Z" fill="white"/>
<path d="M7.56618 20.5184C7.97397 20.5184 8.33646 20.8356 8.33646 21.2796C8.33646 21.6784 8.01022 22.0409 7.56618 22.0409C7.12213 22.0409 6.7959 21.7237 6.7959 21.2796C6.7959 20.8356 7.12213 20.5184 7.56618 20.5184Z" fill="#FFB74D"/>
<path d="M7.56652 12.9968C6.03502 12.9968 4.77539 14.2383 4.77539 15.7517C4.77539 17.2741 6.02596 18.5066 7.56652 18.5066C9.09802 18.5066 10.3576 17.2651 10.3576 15.7517C10.3576 14.2293 9.10708 12.9968 7.56652 12.9968Z" fill="#FFB74D"/>
<path d="M13.8653 2.32167V6.31806L11.3641 3.99816H3.77009L1.22363 6.31806V2.32167C1.22363 1.32484 2.03016 0.518311 3.04512 0.518311H12.0529C13.0587 0.518311 13.8743 1.31578 13.8743 2.32167H13.8653Z" fill="white"/>
<path d="M13.8652 6.28182V6.99773H1.25977V6.31807L3.76997 3.99817H11.364L13.8652 6.28182Z" fill="#FFB74D"/>
<path d="M4.53034 6.9978V9.51707C4.53034 10.0789 4.0863 10.5139 3.52445 10.5139C2.9626 10.5139 2.51855 10.0699 2.51855 9.51707V6.9978H4.53941H4.53034Z" fill="#FFB74D"/>
<path d="M8.57234 6.9978V9.51707C8.57234 10.0789 8.12829 10.5139 7.56644 10.5139C7.00459 10.5139 6.56055 10.0699 6.56055 9.51707V6.9978H8.5814H8.57234Z" fill="#FFB74D"/>
<path d="M12.6143 6.9978V9.51707C12.6143 10.0789 12.1703 10.5139 11.6084 10.5139C11.0466 10.5139 10.6025 10.0699 10.6025 9.51707V6.9978H12.6234H12.6143Z" fill="#FFB74D"/>
<path d="M13.8648 10.4777C13.7833 10.4777 13.7017 10.5139 13.6202 10.5139C13.0583 10.5139 12.6143 10.0699 12.6143 9.51707V6.9978H14.6351V9.51707C14.6351 9.96111 14.3089 10.3598 13.8648 10.4777Z" fill="white"/>
<path d="M10.5938 6.9978V9.51707C10.5938 10.0789 10.1498 10.5139 9.58792 10.5139C9.02607 10.5139 8.58203 10.0699 8.58203 9.51707V6.9978H10.6029H10.5938Z" fill="white"/>
<path d="M2.5189 9.51707C2.5189 10.0789 2.07485 10.5139 1.513 10.5139C1.43144 10.5139 1.34989 10.5139 1.26833 10.4777C0.824283 10.3598 0.498047 9.96111 0.498047 9.51707V6.9978H2.5189V9.51707Z" fill="white"/>
<path d="M6.55183 6.9978V9.51707C6.55183 10.0789 6.10778 10.5139 5.54593 10.5139C4.98408 10.5139 4.54004 10.0699 4.54004 9.51707V6.9978H6.56089H6.55183Z" fill="white"/>
<path d="M8.61807 14.5556L8.33714 15.1174C8.33714 15.1174 8.30089 15.0812 8.25558 15.0812C8.21933 15.0449 8.17402 15.0449 8.09246 14.9996C8.01091 14.9634 7.97466 14.9634 7.8931 14.9181C7.81154 14.8818 7.72998 14.8818 7.64842 14.8818V15.4437L7.76623 15.4799C7.88403 15.5162 8.04715 15.5615 8.12871 15.5977C8.24652 15.634 8.32808 15.7155 8.40964 15.7608C8.4912 15.8424 8.52745 15.924 8.57276 15.9965C8.609 16.078 8.65431 16.1958 8.65431 16.3136C8.65431 16.4768 8.61807 16.5946 8.57276 16.7124C8.52745 16.8302 8.45495 16.9117 8.37339 16.9933C8.29183 17.0748 8.17402 17.1111 8.04715 17.1564C7.92935 17.1927 7.80248 17.1927 7.68467 17.238V17.7183H7.40374V17.238C7.20438 17.238 7.04126 17.2017 6.84189 17.1202C6.64253 17.0839 6.47941 17.0024 6.35254 16.8845L6.63346 16.3227C6.63346 16.3227 6.67877 16.3589 6.71502 16.4043C6.75127 16.4405 6.83283 16.4858 6.87814 16.4858C6.9597 16.5221 7.04126 16.5674 7.12282 16.5674C7.20438 16.6036 7.32218 16.6036 7.40374 16.6489V16.1324L7.28594 16.0146C7.16813 15.9783 7.04126 15.933 6.92345 15.8968C6.84189 15.8605 6.76033 15.779 6.67877 15.7337C6.59722 15.6521 6.56097 15.6158 6.51566 15.5343C6.47941 15.4527 6.47941 15.3712 6.47941 15.2534C6.47941 15.0902 6.51566 14.9724 6.56097 14.8909C6.59722 14.7731 6.67877 14.6915 6.76033 14.61C6.84189 14.5284 6.92345 14.4921 7.04126 14.4106C7.15907 14.329 7.28594 14.329 7.40374 14.329V13.9303H7.68467V14.329C7.84779 14.329 8.04715 14.3653 8.16496 14.4468C8.36433 14.4468 8.52745 14.5284 8.609 14.5646L8.61807 14.5556ZM7.68467 16.1143V16.5946C7.88403 16.5946 8.0109 16.513 8.0109 16.3952C8.0109 16.3136 7.96559 16.2774 7.92935 16.2321C7.84779 16.1505 7.76623 16.1143 7.68467 16.1143ZM7.4853 15.353V14.8728C7.28594 14.8728 7.20438 14.9543 7.20438 15.1084C7.20438 15.1899 7.24969 15.2262 7.28594 15.2715C7.33125 15.2715 7.40374 15.3077 7.4853 15.353Z" fill="#FF7804"/>
<path d="M3.52466 11.0032C2.67282 11.0032 1.99316 10.3235 1.99316 9.48077C1.99316 9.19985 2.23784 8.96423 2.51877 8.96423C2.79969 8.96423 3.04437 9.19985 3.04437 9.48077C3.04437 9.7617 3.28905 9.99731 3.56997 9.99731C3.8509 9.99731 4.09557 9.7617 4.09557 9.48077C4.09557 9.19985 4.34025 8.96423 4.62118 8.96423C4.9021 8.96423 5.14678 9.19985 5.14678 9.48077C5.02897 10.3235 4.34025 11.0032 3.53372 11.0032H3.52466Z" fill="#FF7804"/>
<path d="M4.53083 7.52332H2.50998C2.22905 7.52332 1.98438 7.2877 1.98438 7.00677C1.98438 6.72585 2.22905 6.49023 2.50998 6.49023H4.53083C4.81175 6.49023 5.05643 6.72585 5.05643 7.00677C5.02018 7.2877 4.81175 7.52332 4.53083 7.52332Z" fill="#FF7804"/>
<path d="M5.54614 11.0032C4.69431 11.0032 4.01465 10.3235 4.01465 9.48075V6.96149C4.01465 6.68056 4.25933 6.44495 4.54025 6.44495H6.5611C6.84203 6.44495 7.0867 6.68056 7.0867 6.96149C7.0867 7.24241 6.84203 7.47803 6.5611 7.47803H5.0296V9.48075C5.0296 9.76168 5.27428 9.99729 5.55521 9.99729C5.83613 9.99729 6.08081 9.76168 6.08081 9.48075C6.08081 9.19983 6.32549 8.96421 6.60641 8.96421C6.88734 8.96421 7.13201 9.19983 7.13201 9.48075C7.05045 10.3235 6.36173 11.0032 5.55521 11.0032H5.54614Z" fill="#FF7804"/>
<path d="M7.56665 11.0032C6.71481 11.0032 6.03516 10.3235 6.03516 9.48075V6.96149C6.03516 6.68056 6.27983 6.44495 6.56076 6.44495H8.58161C8.86253 6.44495 9.10721 6.68056 9.10721 6.96149C9.10721 7.24241 8.86253 7.47803 8.58161 7.47803H7.05011V9.48075C7.05011 9.76168 7.29479 9.99729 7.57571 9.99729C7.85664 9.99729 8.10132 9.76168 8.10132 9.48075C8.10132 9.19983 8.34599 8.96421 8.62692 8.96421C8.90785 8.96421 9.15252 9.19983 9.15252 9.48075C9.07096 10.3235 8.38224 11.0032 7.57571 11.0032H7.56665Z" fill="#FF7804"/>
<path d="M9.58716 11.0032C8.73532 11.0032 8.05566 10.3235 8.05566 9.48075V6.96149C8.05566 6.68056 8.30034 6.44495 8.58127 6.44495H10.6021C10.883 6.44495 11.1277 6.68056 11.1277 6.96149C11.1277 7.24241 10.883 7.47803 10.6021 7.47803H9.07062V9.48075C9.07062 9.76168 9.3153 9.99729 9.59622 9.99729C9.87715 9.99729 10.1218 9.76168 10.1218 9.48075C10.1218 9.19983 10.3665 8.96421 10.6474 8.96421C10.9284 8.96421 11.173 9.19983 11.173 9.48075C11.0915 10.3235 10.4028 11.0032 9.59622 11.0032H9.58716Z" fill="#FF7804"/>
<path d="M11.5989 11.0032C10.747 11.0032 10.0674 10.3235 10.0674 9.48075V6.96149C10.0674 6.68056 10.3121 6.44495 10.593 6.44495H12.6138C12.8948 6.44495 13.1394 6.68056 13.1394 6.96149C13.1394 7.24241 12.8948 7.47803 12.6138 7.47803H11.0823V9.48075C11.0823 9.76168 11.327 9.99729 11.6079 9.99729C11.8889 9.99729 12.1335 9.76168 12.1335 9.48075C12.1335 9.19983 12.3782 8.96421 12.6591 8.96421C12.9401 8.96421 13.1847 9.19983 13.1847 9.48075C13.1032 10.3235 12.4145 11.0032 11.6079 11.0032H11.5989Z" fill="#FF7804"/>
<path d="M7.56698 20.9987C7.44917 20.9987 7.3223 21.1165 7.3223 21.2343C7.3223 21.3521 7.44011 21.4699 7.56698 21.4699C7.68479 21.4699 7.81165 21.3521 7.81165 21.2343C7.81165 21.1165 7.69385 20.9987 7.56698 20.9987ZM7.56698 22.5211C6.87826 22.5211 6.31641 21.9593 6.31641 21.2796C6.31641 20.5999 6.87826 20.0381 7.56698 20.0381C8.2557 20.0381 8.81755 20.5999 8.81755 21.2796C8.81755 21.923 8.2557 22.5211 7.56698 22.5211Z" fill="#FF7804"/>
<path d="M13.8645 7.52335C13.5836 7.52335 13.3389 7.28774 13.3389 7.00681V2.28545C13.3389 1.56955 12.7317 1.0077 12.0068 1.0077H3.0806C2.35563 1.0077 1.74847 1.6058 1.74847 2.33076V7.05212C1.74847 7.33305 1.50379 7.56866 1.22287 7.56866C0.941943 7.56866 0.697266 7.33305 0.697266 7.05212V2.33076C0.697266 1.05301 1.74847 0.0108643 3.03529 0.0108643H12.043C13.3389 0.0108643 14.3901 1.05301 14.3901 2.33076V7.00681C14.3448 7.28774 14.1092 7.52335 13.8645 7.52335Z" fill="#FF7804"/>
<path d="M12.0429 23.9983H3.08048C1.7846 23.9983 0.733398 22.9561 0.733398 21.6784V10.4776C0.733398 10.1967 0.978075 9.96105 1.259 9.96105C1.53993 9.96105 1.7846 10.1967 1.7846 10.4413V21.6784C1.7846 22.3943 2.39176 23.0014 3.11673 23.0014H12.1245C12.8494 23.0014 13.4566 22.4033 13.4566 21.6784V10.4413C13.4566 10.1604 13.7013 9.9248 13.9822 9.9248C14.2631 9.9248 14.5078 10.1604 14.5078 10.4051V21.6421C14.39 22.9652 13.3388 23.9983 12.0429 23.9983Z" fill="#FF7804"/>
<path d="M8.32761 3.00134H6.79611C6.51518 3.00134 6.27051 2.76573 6.27051 2.4848C6.27051 2.20388 6.51518 1.96826 6.79611 1.96826H8.32761C8.60853 1.96826 8.85321 2.20388 8.85321 2.4848C8.81696 2.76573 8.57228 3.00134 8.32761 3.00134Z" fill="#FF7804"/>
<path d="M7.56634 13.5224C6.31577 13.5224 5.30082 14.5193 5.30082 15.7608C5.30082 17.0023 6.30671 17.9991 7.56634 17.9991C8.81692 17.9991 9.83187 17.0023 9.83187 15.7608C9.83187 14.5193 8.82598 13.5224 7.56634 13.5224ZM7.56634 19.005C5.74486 19.005 4.29492 17.5641 4.29492 15.7698C4.29492 13.9665 5.74486 12.5347 7.56634 12.5347C9.38783 12.5347 10.8378 13.9755 10.8378 15.7698C10.8378 17.5732 9.38783 19.005 7.56634 19.005Z" fill="#FF7804"/>
<path d="M0.978435 7.52332V9.52604C0.978435 9.76166 1.14155 9.97008 1.34092 10.0063C1.37717 10.0063 1.42248 10.0063 1.45873 10.0063C1.73965 10.0063 1.98433 9.77072 1.98433 9.48979V7.48707H0.978435V7.52332ZM1.50404 11.0032C1.38623 11.0032 1.25936 11.0032 1.14155 10.9669C0.452832 10.8038 0.00878906 10.2057 0.00878906 9.52604V7.00677C0.00878906 6.72585 0.253466 6.49023 0.534391 6.49023H2.55524C2.83617 6.49023 3.08084 6.72585 3.08084 7.00677V9.52604C2.99928 10.3235 2.31056 11.0032 1.50404 11.0032Z" fill="#FF7804"/>
<path d="M13.0948 7.52334V9.52606C13.0948 9.80699 13.3394 10.0426 13.6204 10.0426C13.6566 10.0426 13.7019 10.0426 13.7382 10.0426C13.9828 10.0064 14.146 9.80699 14.146 9.56231V7.55959H13.0948V7.52334ZM13.6204 11.0032C12.7685 11.0032 12.0889 10.3235 12.0889 9.48075V6.96149C12.0889 6.68056 12.3335 6.44495 12.6145 6.44495H14.6353C14.9162 6.44495 15.1609 6.68056 15.1609 6.96149V9.48075C15.1609 10.1604 14.6716 10.7585 13.9919 10.9216C13.8741 11.0032 13.7472 11.0032 13.6294 11.0032H13.6204Z" fill="#FF7804"/>
<path d="M0.49818 7.52337C0.380372 7.52337 0.217254 7.48712 0.135695 7.36025C-0.0636709 7.16088 -0.0274225 6.84371 0.181006 6.64434L3.45243 3.64478C3.53399 3.56323 3.65179 3.52698 3.77866 3.52698H11.3727C11.4905 3.52698 11.6174 3.56323 11.6989 3.64478L14.9704 6.64434C15.1697 6.84371 15.1697 7.16088 15.0066 7.36025C14.8072 7.55962 14.481 7.55962 14.2816 7.3965L11.128 4.51475H3.97803L0.824416 7.3965C0.742857 7.43275 0.625049 7.51431 0.49818 7.51431V7.52337Z" fill="#FF7804"/>
<path d="M11.5988 14.5193C11.3179 14.5193 11.0732 14.2837 11.0732 14.0027V10.4866C11.0732 10.2057 11.3179 9.97009 11.5988 9.97009C11.8798 9.97009 12.1244 10.2057 12.1244 10.4866V14.0027C12.0882 14.2837 11.8798 14.5193 11.5988 14.5193Z" fill="#FF7804"/>
<path d="M3.52463 14.5193C3.2437 14.5193 2.99902 14.2837 2.99902 14.0027V10.4866C2.99902 10.2057 3.2437 9.97009 3.52463 9.97009C3.80555 9.97009 4.05023 10.2057 4.05023 10.4866V14.0027C4.01398 14.2837 3.80555 14.5193 3.52463 14.5193Z" fill="#FF7804"/>
</g>
<defs>
<clipPath id="clip0_91_1503">
<rect width="15.1609" height="24" fill="white"/>
</clipPath>
</defs>
</svg>
