<svg width="28" height="24" viewBox="0 0 28 24" fill="none" xmlns="http://www.w3.org/2000/svg">
<g clip-path="url(#clip0_91_1552)">
<path d="M20.852 16.2416V19.0873C20.852 19.8188 20.2479 20.4161 19.5097 20.4161H17.6573V23.443L12.4694 20.4161H1.95263C1.21438 20.4161 0.610352 19.8188 0.610352 19.0873V10.4161C0.610352 9.6846 1.21438 9.08728 1.95263 9.08728H5.79827V14.8658C5.79827 15.5973 6.4023 16.1947 7.14055 16.1947H20.6708L20.8587 16.2416H20.852Z" fill="#FFB74D"/>
<path d="M24.9331 6.65099V14.8658C24.9331 15.5973 24.329 16.1946 23.5908 16.1946H7.14111C6.40285 16.1946 5.79883 15.5973 5.79883 14.8658V5.27515C5.79883 4.5436 6.40285 3.94629 7.14111 3.94629H21.0874L22.1076 4.67783L21.3223 7.15434L23.4968 5.5973L24.9331 6.65099Z" fill="white"/>
<path d="M26.9736 3.12078L24.7924 4.63756L25.6246 7.16105L24.9334 6.65098L23.4501 5.59729L21.3159 7.16105L22.1079 4.63756L21.0877 3.94628L19.9736 3.12078H22.6179L23.4501 0.59729L24.2824 3.12078H26.9736Z" fill="#FFB74D"/>
<path d="M17.6577 24.0001C17.5638 24.0001 17.4698 23.9531 17.3825 23.9061L12.3289 20.9665H1.94631C0.879195 20.9665 0 20.094 0 19.0403V10.4162C0 9.36247 0.879195 8.48999 1.94631 8.48999H5.79195C6.11409 8.48999 6.39597 8.76516 6.39597 9.08731C6.39597 9.40945 6.1208 9.68462 5.79195 9.68462H1.94631C1.5302 9.68462 1.16107 10.0537 1.16107 10.4631V19.0873C1.16107 19.5034 1.5302 19.8658 1.94631 19.8658H12.4228C12.5168 19.8658 12.6107 19.9128 12.698 19.9598L17.0537 22.4833V20.4631C17.0537 20.141 17.3289 19.8658 17.6577 19.8658H19.5101C19.9262 19.8658 20.2953 19.4967 20.2953 19.0873V16.2417C20.2953 15.9195 20.5705 15.6444 20.8523 15.6444C21.1745 15.6444 21.4564 15.9195 21.4564 16.2417V19.0873C21.4564 20.141 20.5772 21.0135 19.5101 21.0135H18.2148V23.443C18.2148 23.6242 18.1208 23.8591 17.9396 23.9464C17.8456 23.9464 17.7517 23.9933 17.6644 23.9933L17.6577 24.0001Z" fill="#FF7804"/>
<path d="M16.4498 9.08721H8.66457C8.34243 9.08721 8.06055 8.81204 8.06055 8.48989C8.06055 8.16775 8.33571 7.89258 8.66457 7.89258H16.4028C16.725 7.89258 17.0069 8.16775 17.0069 8.48989C17.0069 8.81204 16.772 9.08721 16.4498 9.08721Z" fill="#FF7804"/>
<path d="M22.1075 11.3825H8.66457C8.34243 11.3825 8.06055 11.1073 8.06055 10.7852C8.06055 10.463 8.33571 10.1879 8.66457 10.1879H22.0605C22.3827 10.1879 22.6646 10.463 22.6646 10.7852C22.6646 11.1073 22.4297 11.3825 22.1075 11.3825Z" fill="#FF7804"/>
<path d="M22.1075 13.5369H8.66457C8.34243 13.5369 8.06055 13.2617 8.06055 12.9396C8.06055 12.6175 8.33571 12.3423 8.66457 12.3423H22.0605C22.3827 12.3423 22.6646 12.6175 22.6646 12.9396C22.6646 13.2617 22.4297 13.5369 22.1075 13.5369Z" fill="#FF7804"/>
<path d="M23.5433 16.792H7.14064C6.07353 16.792 5.19434 15.9195 5.19434 14.8658V5.27517C5.19434 4.22148 6.07353 3.349 7.14064 3.349H21.087C21.4091 3.349 21.691 3.62417 21.691 3.94631C21.691 4.26846 21.4158 4.54363 21.087 4.54363H7.14064C6.72454 4.54363 6.35541 4.91276 6.35541 5.32215V14.9128C6.35541 15.3289 6.72454 15.6913 7.14064 15.6913H23.5433C23.9594 15.6913 24.3286 15.3222 24.3286 14.9128V6.65101C24.3286 6.32886 24.6037 6.0537 24.9326 6.0537C25.2547 6.0537 25.5366 6.32886 25.5366 6.65101V14.8658C25.4896 15.9195 24.6104 16.792 23.5433 16.792Z" fill="#FF7804"/>
<path d="M21.7314 3.67114L22.4697 4.17449C22.6576 4.31543 22.7448 4.5906 22.7046 4.81879L22.4294 5.64429L23.1676 5.14094C23.3556 5 23.6307 5 23.8656 5.14094L24.6039 5.64429L24.3287 4.81879C24.2348 4.5906 24.3287 4.31543 24.5636 4.17449L25.3019 3.67114H24.4227C24.1878 3.67114 23.9596 3.5302 23.8656 3.25503L23.4495 2.42953L23.1744 3.25503C23.0804 3.48322 22.8992 3.67114 22.6173 3.67114H21.7381H21.7314ZM21.3153 7.75839C21.1744 7.75839 21.0804 7.71141 20.9931 7.66443C20.8052 7.52349 20.718 7.24832 20.7582 7.02013L21.4562 4.90604L19.6509 3.57718C19.4629 3.43624 19.3757 3.16107 19.4227 2.93288C19.5166 2.7047 19.6978 2.51678 19.9797 2.51678H22.2482L22.9462 0.409394C23.0401 0.181206 23.2213 -0.00671387 23.5032 -0.00671387C23.7784 -0.00671387 23.9663 0.134226 24.0603 0.409394L24.7582 2.51678H27.0267C27.2549 2.51678 27.4898 2.65772 27.5837 2.93288C27.6777 3.16107 27.5837 3.43624 27.3488 3.57718L25.4965 4.85906L26.1945 6.97315C26.2884 7.20134 26.1945 7.47651 25.9596 7.61745C25.7717 7.75839 25.4965 7.75839 25.2616 7.61745L23.4562 6.28859L21.6509 7.61745C21.5569 7.71141 21.416 7.75839 21.3287 7.75839H21.3153Z" fill="#FF7804"/>
</g>
<defs>
<clipPath id="clip0_91_1552">
<rect width="27.6109" height="24" fill="white"/>
</clipPath>
</defs>
</svg>
