<svg width="24" height="24" viewBox="0 0 24 24" fill="none" xmlns="http://www.w3.org/2000/svg">
<g clip-path="url(#clip0_91_1534)">
<path d="M22.8655 20.4805V21.836C22.8655 22.6771 22.155 23.3794 21.3058 23.3794H14.5851C13.7358 23.3794 13.0254 22.6771 13.0254 21.836V20.4805H22.8736H22.8655Z" fill="#FFB74D"/>
<path d="M22.8658 12.2817V20.4804H13.0176V12.2817H22.8658Z" fill="#FFB74D"/>
<path d="M14.586 23.3876H2.18178C1.33252 23.3876 0.62207 22.6853 0.62207 21.8442V20.4886H13.0753V21.8442C13.0263 22.6853 13.7367 23.3876 14.5942 23.3876H14.586Z" fill="white"/>
<path d="M11.8334 4.63831H16.5697V12.2817H13.0175V20.4804H0.613281V4.63831H11.8334Z" fill="white"/>
<path d="M14.5855 24H2.18131C0.997234 24 0.000976562 23.0119 0.000976562 21.8442V4.63833C0.000976562 4.31169 0.286788 4.02588 0.61343 4.02588H16.5699C16.9047 4.02588 17.1823 4.30352 17.1823 4.63833V12.2817C17.1823 12.6084 16.8965 12.8942 16.5699 12.8942C16.2351 12.8942 15.9574 12.6166 15.9574 12.2817V5.25079H1.18505V21.8442C1.18505 22.3586 1.60969 22.8323 2.18131 22.8323H14.5855C14.9203 22.8323 15.198 23.1099 15.198 23.4447C15.198 23.7224 14.9122 24.0082 14.5855 24.0082V24Z" fill="#FF7804"/>
<path d="M13.6383 12.8452V21.8442C13.6383 22.3587 14.063 22.8323 14.6346 22.8323H21.3063C21.8289 22.8323 22.3025 22.4077 22.3025 21.8442V12.8452H13.6383ZM21.3063 24H14.5856C13.4015 24 12.4053 23.0119 12.4053 21.8442V12.2818C12.4053 11.9551 12.6911 11.6693 13.0177 11.6693H22.866C23.2008 11.6693 23.4784 11.947 23.4784 12.2818V21.8442C23.4784 23.0201 22.4822 24 21.2981 24H21.3063Z" fill="#FF7804"/>
<path d="M11.8339 8.15786C11.4991 8.15786 11.2215 7.88022 11.2215 7.54541V3.7482C11.2215 3.04592 10.9357 2.39264 10.4621 1.87001C9.98842 1.35555 9.27798 1.11874 8.56753 1.11874C7.09764 1.11874 5.91357 2.29465 5.91357 3.74004V7.53724C5.91357 7.86389 5.62776 8.1497 5.30112 8.1497C4.96631 8.1497 4.72949 7.87205 4.72949 7.58624V3.78903C4.72949 1.68219 6.4362 -0.00817871 8.56753 -0.00817871C9.61279 -0.00817871 10.5519 0.367459 11.2623 1.11874C11.9728 1.82101 12.3974 2.80911 12.3974 3.78903V7.58624C12.4464 7.86389 12.1606 8.1497 11.8258 8.1497L11.8339 8.15786Z" fill="#FF7804"/>
<path d="M18.0394 18.1367C17.4677 18.1367 16.9533 17.8999 16.5695 17.5243C16.1938 17.1486 15.957 16.6342 15.957 16.0707V14.6172C15.957 14.2905 16.2428 14.0047 16.5695 14.0047C16.9043 14.0047 17.1819 14.2823 17.1819 14.6172V16.0707C17.1819 16.3075 17.2799 16.5362 17.4188 16.6832C17.6066 16.871 17.7944 16.92 18.0312 16.92C18.5048 16.92 18.9295 16.5443 18.9295 16.0299V14.5763C18.9295 14.2497 19.2153 13.9639 19.5419 13.9639C19.8767 13.9639 20.1544 14.2415 20.1544 14.5763V16.0299C20.1054 17.1976 19.1581 18.1367 18.023 18.1367H18.0394Z" fill="#FF7804"/>
<path d="M12.4538 8.15789H11.2697C10.9349 8.15789 10.6572 7.88024 10.6572 7.54544C10.6572 7.21879 10.943 6.93298 11.2697 6.93298H12.4538C12.7886 6.93298 13.0662 7.21063 13.0662 7.54544C13.0172 7.87208 12.7314 8.15789 12.4538 8.15789Z" fill="#FF7804"/>
<path d="M5.92153 8.15789H4.73745C4.40265 8.15789 4.125 7.88024 4.125 7.54544C4.125 7.21879 4.41081 6.93298 4.73745 6.93298H5.92153C6.25634 6.93298 6.53398 7.21063 6.53398 7.54544C6.53398 7.87208 6.24817 8.15789 5.92153 8.15789Z" fill="#FF7804"/>
<path d="M16.5696 15.1888H15.9572C15.6224 15.1888 15.3447 14.9111 15.3447 14.5763C15.3447 14.2497 15.6305 13.9639 15.9572 13.9639H16.5696C16.9044 13.9639 17.1821 14.2415 17.1821 14.5763C17.1821 14.903 16.8963 15.1888 16.5696 15.1888Z" fill="#FF7804"/>
<path d="M20.1224 15.1888H19.5099C19.1751 15.1888 18.8975 14.9111 18.8975 14.5763C18.8975 14.2497 19.1833 13.9639 19.5099 13.9639H20.1224C20.4572 13.9639 20.7348 14.2415 20.7348 14.5763C20.7348 14.903 20.449 15.1888 20.1224 15.1888Z" fill="#FF7804"/>
<path d="M22.8659 21.0439H0.61343C0.278622 21.0439 0.000976562 20.7662 0.000976562 20.4314C0.000976562 20.1048 0.286788 19.819 0.61343 19.819H22.9067C23.2415 19.819 23.5192 20.0966 23.5192 20.4314C23.4702 20.7581 23.1844 21.0439 22.8577 21.0439H22.8659Z" fill="#FF7804"/>
<path d="M2.98159 16.969C2.64679 16.969 2.36914 16.6913 2.36914 16.3565V10.4933C2.36914 10.1667 2.65495 9.88086 2.98159 9.88086C3.3164 9.88086 3.59405 10.1585 3.59405 10.4933V16.3565C3.54505 16.6832 3.25924 16.969 2.98159 16.969Z" fill="#FF7804"/>
<path d="M4.73745 18.1367C4.40265 18.1367 4.125 17.8591 4.125 17.5243V13.4004C4.125 13.0738 4.41081 12.788 4.73745 12.788C5.07226 12.788 5.34991 13.0656 5.34991 13.4004V17.5243C5.34991 17.8509 5.06409 18.1367 4.73745 18.1367Z" fill="#FF7804"/>
<path d="M2.98159 19.3127C2.64679 19.3127 2.36914 19.0351 2.36914 18.7002V18.0878C2.36914 17.7612 2.65495 17.4753 2.98159 17.4753C3.3164 17.4753 3.59405 17.753 3.59405 18.0878V18.7002C3.54505 19.0269 3.25924 19.3127 2.98159 19.3127Z" fill="#FF7804"/>
</g>
<defs>
<clipPath id="clip0_91_1534">
<rect width="23.5286" height="24" fill="white"/>
</clipPath>
</defs>
</svg>
