<svg width="24" height="24" viewBox="0 0 24 24" fill="none" xmlns="http://www.w3.org/2000/svg">
<g clip-path="url(#clip0_91_1278)">
<path d="M4.51367 23.4198V10.6412L4.69688 10.5954C5.00986 11.2595 5.68924 11.7557 6.4984 11.7557C7.57474 11.7557 8.4755 10.8626 8.4755 9.79388C8.4755 10.8626 9.37627 11.7557 10.4526 11.7557C11.5289 11.7557 12.4297 10.8626 12.4297 9.79388C12.4297 10.8626 13.3305 11.7557 14.4068 11.7557C15.4831 11.7557 16.3839 10.8626 16.3839 9.79388V7.83205L20.2923 2.80152L22.0022 0.57251L22.4984 23.4122H4.51367V23.4198Z" fill="white"/>
<path d="M7.8877 19.0152H11.2617V16.2061H7.8877V19.0152Z" fill="#FFB74D"/>
<path d="M4.51367 19.0152H7.88772V16.2061H4.51367V19.0152Z" fill="#FFB74D"/>
<path d="M19.674 17.8549V23.4198H14.0557V17.8549C14.0557 16.2976 15.3152 15.0533 16.8877 15.0533C17.6511 15.0533 18.3686 15.3663 18.8648 15.8549C19.361 16.3892 19.674 17.0991 19.674 17.8549Z" fill="#FFB74D"/>
<path d="M21.9174 0.625854L20.2074 2.84723H4.47461L6.1769 0.625854H21.9174Z" fill="white"/>
<path d="M20.2074 2.84729L16.2991 7.83966H0.558594L4.47462 2.84729H20.2074Z" fill="#FFB74D"/>
<path d="M16.2999 7.8396V9.80143C16.2999 10.8701 15.3991 11.7633 14.3228 11.7633C13.2465 11.7633 12.3457 10.8701 12.3457 9.80143V7.8396H16.2999Z" fill="#FFB74D"/>
<path d="M8.42961 7.8396V9.80143C8.42961 10.8701 7.52884 11.7633 6.45251 11.7633C5.64335 11.7633 4.97159 11.2747 4.65098 10.603C4.55938 10.3816 4.46777 10.0686 4.46777 9.80143V7.8396H8.42197H8.42961Z" fill="#FFB74D"/>
<path d="M12.3839 7.8396V9.80143C12.3839 10.8701 11.4831 11.7633 10.4068 11.7633C9.33045 11.7633 8.42969 10.8701 8.42969 9.80143V7.8396H12.3839Z" fill="white"/>
<path d="M4.51279 7.8396V9.80143C4.51279 10.8701 3.61203 11.7633 2.53569 11.7633C1.45936 11.7633 0.558594 10.8701 0.558594 9.80143V7.8396H4.51279Z" fill="white"/>
<path d="M2.53569 12.29C1.13874 12.29 0.0166016 11.1755 0.0166016 9.79382V7.83198C0.0166016 7.51901 0.283777 7.25183 0.604388 7.25183C0.917365 7.25183 1.19217 7.51901 1.19217 7.83198V9.79382C1.19217 10.5495 1.81813 11.1755 2.58912 11.1755C3.35248 11.1755 3.98607 10.5495 3.98607 9.79382C3.98607 9.48084 4.25324 9.21366 4.57385 9.21366C4.88683 9.21366 5.16164 9.48084 5.16164 9.79382C5.07004 11.1755 3.9479 12.29 2.55095 12.29H2.53569Z" fill="#FF7804"/>
<path d="M6.45188 12.2901C5.45951 12.2901 4.56638 11.7099 4.1618 10.8244C4.0244 10.5114 3.94043 10.1603 3.94043 9.80151V7.83967C3.94043 7.5267 4.20761 7.25952 4.52822 7.25952C4.84119 7.25952 5.0702 7.5267 5.0702 7.83967V9.80151C5.0702 9.97708 5.116 10.1985 5.20761 10.3817C5.43661 10.8702 5.92516 11.1832 6.46715 11.1832C7.23051 11.1832 7.86409 10.5572 7.86409 9.80151C7.86409 9.48853 8.13127 9.22135 8.45188 9.22135C8.76486 9.22135 9.03967 9.48853 9.03967 9.80151C9.03967 11.1832 7.87173 12.2977 6.47478 12.2977L6.45188 12.2901Z" fill="#FF7804"/>
<path d="M10.4068 12.29C9.00983 12.29 7.8877 11.1755 7.8877 9.79382V7.83198C7.8877 7.51901 8.15487 7.25183 8.47548 7.25183C8.78846 7.25183 9.06327 7.51901 9.06327 7.83198V9.79382C9.06327 10.5495 9.68922 11.1755 10.4602 11.1755C11.2236 11.1755 11.8572 10.5495 11.8572 9.79382C11.8572 9.48084 12.1243 9.21366 12.4449 9.21366C12.7579 9.21366 13.0327 9.48084 13.0327 9.79382C12.9411 11.1755 11.819 12.29 10.422 12.29H10.4068Z" fill="#FF7804"/>
<path d="M14.3228 12.29C12.9258 12.29 11.8037 11.1755 11.8037 9.79382V7.83198C11.8037 7.51901 12.0709 7.25183 12.3915 7.25183C12.7045 7.25183 12.9793 7.51901 12.9793 7.83198V9.79382C12.9793 10.5495 13.6052 11.1755 14.3762 11.1755C15.1396 11.1755 15.7732 10.5495 15.7732 9.79382V7.83198C15.7732 7.51901 16.0404 7.25183 16.361 7.25183C16.6739 7.25183 16.9487 7.51901 16.9487 7.83198V9.79382C16.9029 11.1755 15.735 12.29 14.3381 12.29H14.3228Z" fill="#FF7804"/>
<path d="M4.51357 16.7404C4.20059 16.7404 3.92578 16.4732 3.92578 16.1603V10.6412C3.92578 10.3282 4.19296 10.061 4.51357 10.061C4.82654 10.061 5.10135 10.3282 5.10135 10.6412V16.2061C5.05555 16.4732 4.78838 16.7404 4.51357 16.7404Z" fill="#FF7804"/>
<path d="M14.0479 24H4.51357C4.20059 24 3.92578 23.7328 3.92578 23.4198V18.9694C3.92578 18.6565 4.19296 18.3893 4.51357 18.3893C4.82654 18.3893 5.05555 18.6565 5.05555 18.9694V22.8855H14.0479C14.3609 22.8855 14.6357 23.1526 14.6357 23.4656C14.6357 23.7328 14.3685 24 14.0479 24Z" fill="#FF7804"/>
<path d="M22.5058 24H19.6737C19.3607 24 19.0859 23.7328 19.0859 23.4198C19.0859 23.1069 19.3531 22.8397 19.6737 22.8397H21.9256L21.3836 0.580153C21.3836 0.267176 21.605 0 21.9256 0C22.2386 0 22.5134 0.221374 22.5134 0.534351L23.0554 23.4198C23.0554 23.5496 23.0096 23.7328 22.8722 23.8168C22.7806 23.9084 22.6508 23.9924 22.5134 23.9924L22.5058 24Z" fill="#FF7804"/>
<path d="M14.6357 22.8855H19.1319V17.8549C19.1319 17.2748 18.9105 16.6946 18.4601 16.2977C18.0556 15.9007 17.4678 15.6335 16.8876 15.6335C15.6281 15.6335 14.6357 16.6106 14.6357 17.8626V22.8931V22.8855ZM19.6739 24H14.0556C13.7426 24 13.4678 23.7328 13.4678 23.4198V17.8549C13.4678 16.0305 14.9945 14.519 16.8418 14.519C17.7426 14.519 18.5975 14.8778 19.2235 15.4961C19.8495 16.1221 20.2159 16.9618 20.2159 17.8549V23.4198C20.2617 23.7328 19.9945 24 19.6739 24Z" fill="#FF7804"/>
<path d="M7.88761 19.5496H4.51357C4.20059 19.5496 3.92578 19.2824 3.92578 18.9694V16.1679C3.92578 15.8549 4.19296 15.5878 4.51357 15.5878H7.88761C8.20059 15.5878 8.4754 15.8549 8.4754 16.1679C8.4754 16.4809 8.16242 16.7481 7.88761 16.7481H5.05555V18.4427H7.88761C8.20059 18.4427 8.4754 18.7099 8.4754 19.0229C8.4296 19.2901 8.16242 19.5572 7.88761 19.5572V19.5496Z" fill="#FF7804"/>
<path d="M8.42958 18.4351H10.6815V16.7404H8.42958V18.4351ZM11.2616 19.5496H7.88759C7.57461 19.5496 7.2998 19.2824 7.2998 18.9694V16.1679C7.2998 15.8549 7.56698 15.5878 7.88759 15.5878H11.2616C11.5746 15.5878 11.8494 15.8549 11.8494 16.1679V18.9694C11.8036 19.2824 11.5364 19.5496 11.2616 19.5496Z" fill="#FF7804"/>
<path d="M16.2996 20.0839H15.7118C15.3988 20.0839 15.124 19.8167 15.124 19.5037C15.124 19.1908 15.3912 18.9236 15.7118 18.9236H16.2996C16.6126 18.9236 16.8874 19.1908 16.8874 19.5037C16.8874 19.8167 16.6202 20.0839 16.2996 20.0839Z" fill="#FF7804"/>
<path d="M1.68119 7.30531H15.9789L18.9942 3.38928H4.74225L1.68119 7.30531ZM16.2995 8.41982H0.559048C0.337674 8.41982 0.154468 8.28241 0.0628651 8.10684C-0.0287379 7.93127 -0.0287379 7.70989 0.108667 7.52669L4.0247 2.49615C4.1163 2.36638 4.29187 2.27478 4.47508 2.27478H20.2155C20.4369 2.27478 20.6201 2.41218 20.7117 2.58776C20.8033 2.76333 20.8033 2.9847 20.6659 3.16791L16.7575 8.19844C16.6659 8.32822 16.4903 8.41982 16.3071 8.41982H16.2995Z" fill="#FF7804"/>
<path d="M4.47486 3.38162C4.33745 3.38162 4.25348 3.33582 4.11608 3.24422C3.8947 3.06865 3.8489 2.70987 4.02448 2.44269L5.7344 0.213684C5.826 0.076279 6.00157 -0.00769043 6.18478 -0.00769043H21.9252C22.1466 -0.00769043 22.3298 0.122081 22.4214 0.305287C22.513 0.480859 22.513 0.702233 22.3756 0.885439L20.6657 3.11445C20.4825 3.33582 20.1237 3.38162 19.8565 3.20605C19.6352 3.03048 19.5894 2.6717 19.7649 2.40452L20.7955 1.06865H6.45196L4.87944 3.06865C4.78783 3.29002 4.61226 3.38162 4.47486 3.38162Z" fill="#FF7804"/>
</g>
<defs>
<clipPath id="clip0_91_1278">
<rect width="23.0419" height="24" fill="white"/>
</clipPath>
</defs>
</svg>
