<svg width="11" height="14" viewBox="0 0 11 14" fill="none" xmlns="http://www.w3.org/2000/svg">
<g opacity="0.5">
<path d="M3.91145 2.89931C3.8162 2.89665 3.72267 2.93178 3.64386 2.9999C3.56505 3.06801 3.50487 3.16574 3.47169 3.27939C3.43851 3.39305 3.43398 3.51702 3.45872 3.63411C3.48347 3.75119 3.53626 3.85551 3.60977 3.93264L6.41438 6.99058L3.60977 10.0474C3.55892 10.095 3.51634 10.1554 3.48469 10.2249C3.45303 10.2943 3.43299 10.3714 3.42582 10.4512C3.41865 10.531 3.4245 10.6118 3.443 10.6886C3.46151 10.7654 3.49227 10.8365 3.53336 10.8974C3.57445 10.9584 3.62499 11.0078 3.68181 11.0428C3.73863 11.0777 3.8005 11.0973 3.86356 11.1004C3.92661 11.1035 3.98949 11.0901 4.04826 11.0608C4.10702 11.0315 4.16041 10.9871 4.20507 10.9304L7.41609 7.43377C7.46652 7.379 7.50701 7.31103 7.53477 7.23441C7.56254 7.1578 7.57692 7.07441 7.57692 6.99004C7.57692 6.90567 7.56254 6.82228 7.53477 6.74567C7.50701 6.66906 7.46652 6.60101 7.41609 6.54624L4.20507 3.04626C4.12395 2.95456 4.01991 2.90243 3.91145 2.89918V2.89931Z" fill="#111111"/>
</g>
</svg>
