<svg width="14" height="14" viewBox="0 0 14 14" fill="none" xmlns="http://www.w3.org/2000/svg">
<path d="M6.99786 0C5.90582 0.000181954 4.82896 0.255862 3.8534 0.746598C2.87783 1.23733 2.03061 1.94951 1.37947 2.8262C0.728334 3.70288 0.291342 4.71975 0.103433 5.7955C-0.0844764 6.87125 -0.0180896 7.97605 0.297285 9.02156C0.61266 10.0671 1.16827 11.0243 1.91971 11.8167C2.67114 12.6091 3.59755 13.2147 4.62486 13.5851C5.65217 13.9555 6.75189 14.0804 7.83609 13.9498C8.9203 13.8192 9.95891 13.4367 10.8689 12.833C10.954 12.7765 11.027 12.7037 11.084 12.6189C11.1409 12.5341 11.1806 12.439 11.2008 12.3388C11.2209 12.2387 11.2212 12.1356 11.2015 12.0354C11.1818 11.9351 11.1425 11.8398 11.086 11.7547C11.0295 11.6697 10.9567 11.5966 10.8719 11.5396C10.7871 11.4827 10.6919 11.443 10.5918 11.4228C10.4917 11.4027 10.3886 11.4024 10.2883 11.4221C10.1881 11.4418 10.0928 11.4811 10.0077 11.5376C8.99686 12.2083 7.791 12.5222 6.58144 12.4295C5.37189 12.3369 4.22791 11.8429 3.33103 11.0261C2.43415 10.2093 1.83573 9.11634 1.63072 7.92068C1.42571 6.72503 1.62585 5.49516 2.19939 4.42621C2.77293 3.35725 3.68701 2.51044 4.79661 2.02012C5.90621 1.52981 7.14776 1.42409 8.32429 1.71972C9.50081 2.01535 10.5449 2.69541 11.2909 3.65199C12.037 4.60858 12.4422 5.7869 12.4423 7C12.4423 7.60201 12.3343 8.10723 12.1382 8.42263C11.9673 8.69753 11.7481 8.81481 11.4053 8.81481C11.0624 8.81481 10.8432 8.69753 10.6723 8.42263C10.4762 8.10723 10.3682 7.60201 10.3682 7V4.40741C10.3682 4.22075 10.3011 4.04031 10.1791 3.89904C10.0571 3.75777 9.8884 3.66509 9.70373 3.63792C9.51906 3.61075 9.33078 3.65091 9.17327 3.75106C9.01575 3.85122 8.89952 4.00468 8.84578 4.18344C8.31103 3.83192 7.68727 3.63991 7.04742 3.62984C6.40756 3.61977 5.77807 3.79207 5.23253 4.12658C4.68699 4.4611 4.24795 4.94401 3.96675 5.51885C3.68555 6.09369 3.57381 6.7367 3.6446 7.37271C3.71538 8.00871 3.96576 8.61143 4.36647 9.11037C4.76717 9.60932 5.30164 9.98389 5.90737 10.1903C6.51311 10.3967 7.16509 10.4263 7.78707 10.2758C8.40905 10.1253 8.97534 9.80087 9.41971 9.34039C9.86918 10.0012 10.5506 10.3704 11.4053 10.3704C13.0044 10.3704 13.9979 9.07895 13.9979 7C13.9958 5.14413 13.2576 3.36486 11.9453 2.05256C10.633 0.740258 8.85373 0.00208931 6.99786 0ZM6.99786 8.81481C6.63892 8.81481 6.28805 8.70838 5.9896 8.50896C5.69116 8.30955 5.45855 8.02611 5.32119 7.6945C5.18383 7.36288 5.14789 6.99799 5.21791 6.64595C5.28794 6.29391 5.46078 5.97054 5.71459 5.71673C5.9684 5.46293 6.29177 5.29008 6.6438 5.22006C6.99584 5.15003 7.36074 5.18597 7.69236 5.32333C8.02397 5.46069 8.30741 5.6933 8.50682 5.99174C8.70623 6.29019 8.81267 6.64106 8.81267 7C8.81213 7.48115 8.62076 7.94244 8.28053 8.28267C7.9403 8.6229 7.47901 8.81427 6.99786 8.81481Z" fill="currentColor"/>
</svg>
