<svg width="14" height="14" viewBox="0 0 14 14" fill="none" xmlns="http://www.w3.org/2000/svg">
<path d="M6.99951 0C5.78377 0.000328121 4.58906 0.31722 3.53298 0.919486C2.4769 1.52175 1.59585 2.38863 0.976534 3.43481C0.357221 4.48098 0.0209958 5.67039 0.000951849 6.88597C-0.0190921 8.10155 0.277736 9.30139 0.86222 10.3674L0.286957 12.3808C0.234191 12.5654 0.231767 12.7608 0.279934 12.9467C0.328102 13.1327 0.425109 13.3023 0.560903 13.4381C0.696697 13.5739 0.866336 13.6709 1.05224 13.7191C1.23814 13.7672 1.43355 13.7648 1.6182 13.7121L3.63164 13.1368C4.5673 13.6502 5.60798 13.9429 6.67409 13.9925C7.74021 14.042 8.80354 13.8471 9.78279 13.4227C10.762 12.9982 11.6313 12.3555 12.324 11.5436C13.0168 10.7317 13.5147 9.7722 13.7797 8.73836C14.0448 7.70453 14.0699 6.62378 13.8532 5.57874C13.6365 4.5337 13.1837 3.55205 12.5295 2.70884C11.8752 1.86563 11.0368 1.18318 10.0784 0.713688C9.1199 0.244192 8.06678 7.46656e-05 6.99951 0ZM6.99951 12.9222C5.93589 12.9229 4.89175 12.6368 3.97709 12.094C3.91401 12.0565 3.84394 12.0322 3.77117 12.0228C3.69841 12.0133 3.62447 12.0189 3.55391 12.039L1.3224 12.6766L1.9599 10.4451C1.98006 10.3746 1.98559 10.3007 1.97615 10.2279C1.9667 10.1551 1.94249 10.0851 1.90499 10.022C1.23793 8.89812 0.961302 7.58514 1.11821 6.28763C1.27512 4.99011 1.85675 3.78093 2.7725 2.84842C3.68825 1.91592 4.8867 1.31247 6.18116 1.13207C7.47561 0.951665 8.79339 1.20444 9.92921 1.85103C11.065 2.49761 11.9551 3.5017 12.4608 4.70686C12.9665 5.91203 13.0594 7.25061 12.7251 8.51409C12.3907 9.77756 11.6479 10.895 10.6123 11.6923C9.5767 12.4896 8.30648 12.922 6.99951 12.9222ZM10.5326 8.01372L9.15564 7.22686C8.98952 7.13206 8.80117 7.08317 8.60992 7.08521C8.41867 7.08726 8.23141 7.14016 8.06736 7.23849L7.26971 7.71711C6.85935 7.4804 6.51865 7.13969 6.28195 6.72932L6.76053 5.93161C6.85883 5.76755 6.91171 5.5803 6.91374 5.38906C6.91578 5.19783 6.86689 5.00949 6.7721 4.84339L5.98524 3.46631C5.89739 3.31305 5.77069 3.18566 5.6179 3.097C5.46511 3.00834 5.29164 2.96155 5.115 2.96133C4.47392 2.96158 3.85906 3.21579 3.40497 3.66832C2.95088 4.12084 2.69455 4.73482 2.69209 5.37589C2.69099 6.15437 2.84337 6.92542 3.14051 7.64495C3.43765 8.36448 3.87374 9.01838 4.42381 9.56923C4.97388 10.1201 5.62715 10.5571 6.34626 10.8553C7.06537 11.1534 7.83621 11.3069 8.61468 11.3069C8.61748 11.3069 8.62172 11.3085 8.62316 11.3069C9.26422 11.3044 9.87819 11.0481 10.3307 10.594C10.7832 10.1399 11.0374 9.52506 11.0377 8.88399C11.0374 8.70733 10.9906 8.53385 10.902 8.38106C10.8133 8.22826 10.6859 8.10155 10.5326 8.01372ZM8.62165 10.2301C7.98413 10.231 7.35269 10.1061 6.76352 9.86252C6.17435 9.61897 5.63903 9.26156 5.18823 8.81076C4.73743 8.35996 4.38002 7.82464 4.13647 7.23547C3.89292 6.6463 3.76802 6.01486 3.76894 5.37734C3.77056 5.0289 3.90729 4.69469 4.15036 4.44504C4.39343 4.19538 4.72388 4.04977 5.07214 4.03884L5.83712 5.3776L5.20524 6.43079C5.16055 6.50525 5.13454 6.58942 5.12942 6.67612C5.12431 6.76281 5.14024 6.84946 5.17586 6.92866C5.55419 7.77075 6.22827 8.44481 7.07036 8.82313C7.14956 8.85877 7.2362 8.87471 7.32289 8.86959C7.40958 8.86448 7.49375 8.83846 7.5682 8.79375L8.62139 8.16187L9.96015 8.92685C9.94923 9.27512 9.80361 9.60556 9.55396 9.84863C9.30431 10.0917 8.97009 10.2284 8.62165 10.2301Z" fill="currentColor"/>
</svg>
